<svg width="275" height="275" viewBox="0 0 275 275" fill="none" xmlns="http://www.w3.org/2000/svg">
<path d="M12.9502 231.535H267.233" stroke="#263238" stroke-linecap="round" stroke-linejoin="round"/>
<path d="M12.9502 237.61H267.233" stroke="#263238" stroke-linecap="round" stroke-linejoin="round"/>
<path d="M31.0832 129.684H16.5007C15.0997 129.684 13.9639 130.868 13.9639 132.328V147.526C13.9639 148.987 15.0997 150.17 16.5007 150.17H31.0832C32.4842 150.17 33.62 148.987 33.62 147.526V132.328C33.62 130.868 32.4842 129.684 31.0832 129.684Z" stroke="#263238" stroke-linecap="round" stroke-linejoin="round"/>
<path d="M52.4042 129.684H37.8218C36.4207 129.684 35.2849 130.868 35.2849 132.328V147.526C35.2849 148.987 36.4207 150.17 37.8218 150.17H52.4042C53.8053 150.17 54.9411 148.987 54.9411 147.526V132.328C54.9411 130.868 53.8053 129.684 52.4042 129.684Z" stroke="#263238" stroke-linecap="round" stroke-linejoin="round"/>
<path d="M73.7245 129.684H59.1421C57.741 129.684 56.6052 130.868 56.6052 132.328V147.526C56.6052 148.987 57.741 150.17 59.1421 150.17H73.7245C75.1256 150.17 76.2614 148.987 76.2614 147.526V132.328C76.2614 130.868 75.1256 129.684 73.7245 129.684Z" stroke="#263238" stroke-linecap="round" stroke-linejoin="round"/>
<path d="M95.039 129.684H80.4566C79.0555 129.684 77.9197 130.868 77.9197 132.328V147.526C77.9197 148.987 79.0555 150.17 80.4566 150.17H95.039C96.44 150.17 97.5758 148.987 97.5758 147.526V132.328C97.5758 130.868 96.44 129.684 95.039 129.684Z" stroke="#263238" stroke-linecap="round" stroke-linejoin="round"/>
<path d="M116.361 129.684H101.778C100.377 129.684 99.2412 130.868 99.2412 132.328V147.526C99.2412 148.987 100.377 150.17 101.778 150.17H116.361C117.762 150.17 118.897 148.987 118.897 147.526V132.328C118.897 130.868 117.762 129.684 116.361 129.684Z" stroke="#263238" stroke-linecap="round" stroke-linejoin="round"/>
<path d="M137.68 129.684H123.098C121.697 129.684 120.561 130.868 120.561 132.328V147.526C120.561 148.987 121.697 150.17 123.098 150.17H137.68C139.081 150.17 140.217 148.987 140.217 147.526V132.328C140.217 130.868 139.081 129.684 137.68 129.684Z" stroke="#263238" stroke-linecap="round" stroke-linejoin="round"/>
<path d="M158.996 129.684H144.413C143.012 129.684 141.876 130.868 141.876 132.328V147.526C141.876 148.987 143.012 150.17 144.413 150.17H158.996C160.397 150.17 161.533 148.987 161.533 147.526V132.328C161.533 130.868 160.397 129.684 158.996 129.684Z" stroke="#263238" stroke-linecap="round" stroke-linejoin="round"/>
<path d="M180.317 129.684H165.734C164.333 129.684 163.198 130.868 163.198 132.328V147.526C163.198 148.987 164.333 150.17 165.734 150.17H180.317C181.718 150.17 182.854 148.987 182.854 147.526V132.328C182.854 130.868 181.718 129.684 180.317 129.684Z" stroke="#263238" stroke-linecap="round" stroke-linejoin="round"/>
<path d="M201.637 129.684H187.055C185.654 129.684 184.518 130.868 184.518 132.328V147.526C184.518 148.987 185.654 150.17 187.055 150.17H201.637C203.038 150.17 204.174 148.987 204.174 147.526V132.328C204.174 130.868 203.038 129.684 201.637 129.684Z" stroke="#263238" stroke-linecap="round" stroke-linejoin="round"/>
<path d="M222.952 129.684H208.37C206.969 129.684 205.833 130.868 205.833 132.328V147.526C205.833 148.987 206.969 150.17 208.37 150.17H222.952C224.353 150.17 225.489 148.987 225.489 147.526V132.328C225.489 130.868 224.353 129.684 222.952 129.684Z" stroke="#263238" stroke-linecap="round" stroke-linejoin="round"/>
<path d="M244.272 129.684H229.69C228.289 129.684 227.153 130.868 227.153 132.328V147.526C227.153 148.987 228.289 150.17 229.69 150.17H244.272C245.673 150.17 246.809 148.987 246.809 147.526V132.328C246.809 130.868 245.673 129.684 244.272 129.684Z" stroke="#263238" stroke-linecap="round" stroke-linejoin="round"/>
<path d="M265.593 129.684H251.011C249.61 129.684 248.474 130.868 248.474 132.328V147.526C248.474 148.987 249.61 150.17 251.011 150.17H265.593C266.994 150.17 268.13 148.987 268.13 147.526V132.328C268.13 130.868 266.994 129.684 265.593 129.684Z" stroke="#263238" stroke-linecap="round" stroke-linejoin="round"/>
<path d="M31.0832 151.58H16.5007C15.0997 151.58 13.9639 152.764 13.9639 154.224V169.422C13.9639 170.882 15.0997 172.066 16.5007 172.066H31.0832C32.4842 172.066 33.62 170.882 33.62 169.422V154.224C33.62 152.764 32.4842 151.58 31.0832 151.58Z" stroke="#263238" stroke-linecap="round" stroke-linejoin="round"/>
<path d="M52.4042 151.58H37.8218C36.4207 151.58 35.2849 152.764 35.2849 154.224V169.422C35.2849 170.882 36.4207 172.066 37.8218 172.066H52.4042C53.8053 172.066 54.9411 170.882 54.9411 169.422V154.224C54.9411 152.764 53.8053 151.58 52.4042 151.58Z" stroke="#263238" stroke-linecap="round" stroke-linejoin="round"/>
<path d="M73.7245 151.58H59.1421C57.741 151.58 56.6052 152.764 56.6052 154.224V169.422C56.6052 170.882 57.741 172.066 59.1421 172.066H73.7245C75.1256 172.066 76.2614 170.882 76.2614 169.422V154.224C76.2614 152.764 75.1256 151.58 73.7245 151.58Z" stroke="#263238" stroke-linecap="round" stroke-linejoin="round"/>
<path d="M95.039 151.58H80.4566C79.0555 151.58 77.9197 152.764 77.9197 154.224V169.422C77.9197 170.882 79.0555 172.066 80.4566 172.066H95.039C96.44 172.066 97.5758 170.882 97.5758 169.422V154.224C97.5758 152.764 96.44 151.58 95.039 151.58Z" stroke="#263238" stroke-linecap="round" stroke-linejoin="round"/>
<path d="M116.361 151.58H101.778C100.377 151.58 99.2412 152.764 99.2412 154.224V169.422C99.2412 170.882 100.377 172.066 101.778 172.066H116.361C117.762 172.066 118.897 170.882 118.897 169.422V154.224C118.897 152.764 117.762 151.58 116.361 151.58Z" stroke="#263238" stroke-linecap="round" stroke-linejoin="round"/>
<path d="M137.68 151.58H123.098C121.697 151.58 120.561 152.764 120.561 154.224V169.422C120.561 170.882 121.697 172.066 123.098 172.066H137.68C139.081 172.066 140.217 170.882 140.217 169.422V154.224C140.217 152.764 139.081 151.58 137.68 151.58Z" stroke="#263238" stroke-linecap="round" stroke-linejoin="round"/>
<path d="M158.996 151.58H144.413C143.012 151.58 141.876 152.764 141.876 154.224V169.422C141.876 170.882 143.012 172.066 144.413 172.066H158.996C160.397 172.066 161.533 170.882 161.533 169.422V154.224C161.533 152.764 160.397 151.58 158.996 151.58Z" stroke="#263238" stroke-linecap="round" stroke-linejoin="round"/>
<path d="M180.317 151.58H165.734C164.333 151.58 163.198 152.764 163.198 154.224V169.422C163.198 170.882 164.333 172.066 165.734 172.066H180.317C181.718 172.066 182.854 170.882 182.854 169.422V154.224C182.854 152.764 181.718 151.58 180.317 151.58Z" stroke="#263238" stroke-linecap="round" stroke-linejoin="round"/>
<path d="M201.637 151.58H187.055C185.654 151.58 184.518 152.764 184.518 154.224V169.422C184.518 170.882 185.654 172.066 187.055 172.066H201.637C203.038 172.066 204.174 170.882 204.174 169.422V154.224C204.174 152.764 203.038 151.58 201.637 151.58Z" stroke="#263238" stroke-linecap="round" stroke-linejoin="round"/>
<path d="M222.952 151.58H208.37C206.969 151.58 205.833 152.764 205.833 154.224V169.422C205.833 170.882 206.969 172.066 208.37 172.066H222.952C224.353 172.066 225.489 170.882 225.489 169.422V154.224C225.489 152.764 224.353 151.58 222.952 151.58Z" stroke="#263238" stroke-linecap="round" stroke-linejoin="round"/>
<path d="M244.272 151.58H229.69C228.289 151.58 227.153 152.764 227.153 154.224V169.422C227.153 170.882 228.289 172.066 229.69 172.066H244.272C245.673 172.066 246.809 170.882 246.809 169.422V154.224C246.809 152.764 245.673 151.58 244.272 151.58Z" stroke="#263238" stroke-linecap="round" stroke-linejoin="round"/>
<path d="M265.593 151.58H251.011C249.61 151.58 248.474 152.764 248.474 154.224V169.422C248.474 170.882 249.61 172.066 251.011 172.066H265.593C266.994 172.066 268.13 170.882 268.13 169.422V154.224C268.13 152.764 266.994 151.58 265.593 151.58Z" stroke="#263238" stroke-linecap="round" stroke-linejoin="round"/>
<path d="M31.0832 173.475H16.5007C15.0997 173.475 13.9639 174.658 13.9639 176.119V191.317C13.9639 192.777 15.0997 193.961 16.5007 193.961H31.0832C32.4842 193.961 33.62 192.777 33.62 191.317V176.119C33.62 174.658 32.4842 173.475 31.0832 173.475Z" stroke="#263238" stroke-linecap="round" stroke-linejoin="round"/>
<path d="M52.4042 173.475H37.8218C36.4207 173.475 35.2849 174.658 35.2849 176.119V191.317C35.2849 192.777 36.4207 193.961 37.8218 193.961H52.4042C53.8053 193.961 54.9411 192.777 54.9411 191.317V176.119C54.9411 174.658 53.8053 173.475 52.4042 173.475Z" stroke="#263238" stroke-linecap="round" stroke-linejoin="round"/>
<path d="M73.7245 173.475H59.1421C57.741 173.475 56.6052 174.658 56.6052 176.119V191.317C56.6052 192.777 57.741 193.961 59.1421 193.961H73.7245C75.1256 193.961 76.2614 192.777 76.2614 191.317V176.119C76.2614 174.658 75.1256 173.475 73.7245 173.475Z" stroke="#263238" stroke-linecap="round" stroke-linejoin="round"/>
<path d="M95.039 173.475H80.4566C79.0555 173.475 77.9197 174.658 77.9197 176.119V191.317C77.9197 192.777 79.0555 193.961 80.4566 193.961H95.039C96.44 193.961 97.5758 192.777 97.5758 191.317V176.119C97.5758 174.658 96.44 173.475 95.039 173.475Z" stroke="#263238" stroke-linecap="round" stroke-linejoin="round"/>
<path d="M116.361 173.475H101.778C100.377 173.475 99.2412 174.658 99.2412 176.119V191.317C99.2412 192.777 100.377 193.961 101.778 193.961H116.361C117.762 193.961 118.897 192.777 118.897 191.317V176.119C118.897 174.658 117.762 173.475 116.361 173.475Z" stroke="#263238" stroke-linecap="round" stroke-linejoin="round"/>
<path d="M137.68 173.475H123.098C121.697 173.475 120.561 174.658 120.561 176.119V191.317C120.561 192.777 121.697 193.961 123.098 193.961H137.68C139.081 193.961 140.217 192.777 140.217 191.317V176.119C140.217 174.658 139.081 173.475 137.68 173.475Z" stroke="#263238" stroke-linecap="round" stroke-linejoin="round"/>
<path d="M158.996 173.475H144.413C143.012 173.475 141.876 174.658 141.876 176.119V191.317C141.876 192.777 143.012 193.961 144.413 193.961H158.996C160.397 193.961 161.533 192.777 161.533 191.317V176.119C161.533 174.658 160.397 173.475 158.996 173.475Z" stroke="#263238" stroke-linecap="round" stroke-linejoin="round"/>
<path d="M180.317 173.475H165.734C164.333 173.475 163.198 174.658 163.198 176.119V191.317C163.198 192.777 164.333 193.961 165.734 193.961H180.317C181.718 193.961 182.854 192.777 182.854 191.317V176.119C182.854 174.658 181.718 173.475 180.317 173.475Z" stroke="#263238" stroke-linecap="round" stroke-linejoin="round"/>
<path d="M201.637 173.475H187.055C185.654 173.475 184.518 174.658 184.518 176.119V191.317C184.518 192.777 185.654 193.961 187.055 193.961H201.637C203.038 193.961 204.174 192.777 204.174 191.317V176.119C204.174 174.658 203.038 173.475 201.637 173.475Z" stroke="#263238" stroke-linecap="round" stroke-linejoin="round"/>
<path d="M222.952 173.475H208.37C206.969 173.475 205.833 174.658 205.833 176.119V191.317C205.833 192.777 206.969 193.961 208.37 193.961H222.952C224.353 193.961 225.489 192.777 225.489 191.317V176.119C225.489 174.658 224.353 173.475 222.952 173.475Z" stroke="#263238" stroke-linecap="round" stroke-linejoin="round"/>
<path d="M244.272 173.475H229.69C228.289 173.475 227.153 174.658 227.153 176.119V191.317C227.153 192.777 228.289 193.961 229.69 193.961H244.272C245.673 193.961 246.809 192.777 246.809 191.317V176.119C246.809 174.658 245.673 173.475 244.272 173.475Z" stroke="#263238" stroke-linecap="round" stroke-linejoin="round"/>
<path d="M265.593 173.475H251.011C249.61 173.475 248.474 174.658 248.474 176.119V191.317C248.474 192.777 249.61 193.961 251.011 193.961H265.593C266.994 193.961 268.13 192.777 268.13 191.317V176.119C268.13 174.658 266.994 173.475 265.593 173.475Z" stroke="#263238" stroke-linecap="round" stroke-linejoin="round"/>
<path d="M31.0832 195.369H16.5007C15.0997 195.369 13.9639 196.553 13.9639 198.013V213.212C13.9639 214.672 15.0997 215.856 16.5007 215.856H31.0832C32.4842 215.856 33.62 214.672 33.62 213.212V198.013C33.62 196.553 32.4842 195.369 31.0832 195.369Z" stroke="#263238" stroke-linecap="round" stroke-linejoin="round"/>
<path d="M52.4042 195.369H37.8218C36.4207 195.369 35.2849 196.553 35.2849 198.013V213.212C35.2849 214.672 36.4207 215.856 37.8218 215.856H52.4042C53.8053 215.856 54.9411 214.672 54.9411 213.212V198.013C54.9411 196.553 53.8053 195.369 52.4042 195.369Z" stroke="#263238" stroke-linecap="round" stroke-linejoin="round"/>
<path d="M73.7245 195.369H59.1421C57.741 195.369 56.6052 196.553 56.6052 198.013V213.212C56.6052 214.672 57.741 215.856 59.1421 215.856H73.7245C75.1256 215.856 76.2614 214.672 76.2614 213.212V198.013C76.2614 196.553 75.1256 195.369 73.7245 195.369Z" stroke="#263238" stroke-linecap="round" stroke-linejoin="round"/>
<path d="M95.039 195.369H80.4566C79.0555 195.369 77.9197 196.553 77.9197 198.013V213.212C77.9197 214.672 79.0555 215.856 80.4566 215.856H95.039C96.44 215.856 97.5758 214.672 97.5758 213.212V198.013C97.5758 196.553 96.44 195.369 95.039 195.369Z" stroke="#263238" stroke-linecap="round" stroke-linejoin="round"/>
<path d="M116.361 195.369H101.778C100.377 195.369 99.2412 196.553 99.2412 198.013V213.212C99.2412 214.672 100.377 215.856 101.778 215.856H116.361C117.762 215.856 118.897 214.672 118.897 213.212V198.013C118.897 196.553 117.762 195.369 116.361 195.369Z" stroke="#263238" stroke-linecap="round" stroke-linejoin="round"/>
<path d="M137.68 195.369H123.098C121.697 195.369 120.561 196.553 120.561 198.013V213.212C120.561 214.672 121.697 215.856 123.098 215.856H137.68C139.081 215.856 140.217 214.672 140.217 213.212V198.013C140.217 196.553 139.081 195.369 137.68 195.369Z" stroke="#263238" stroke-linecap="round" stroke-linejoin="round"/>
<path d="M158.996 195.369H144.413C143.012 195.369 141.876 196.553 141.876 198.013V213.212C141.876 214.672 143.012 215.856 144.413 215.856H158.996C160.397 215.856 161.533 214.672 161.533 213.212V198.013C161.533 196.553 160.397 195.369 158.996 195.369Z" stroke="#263238" stroke-linecap="round" stroke-linejoin="round"/>
<path d="M180.317 195.369H165.734C164.333 195.369 163.198 196.553 163.198 198.013V213.212C163.198 214.672 164.333 215.856 165.734 215.856H180.317C181.718 215.856 182.854 214.672 182.854 213.212V198.013C182.854 196.553 181.718 195.369 180.317 195.369Z" stroke="#263238" stroke-linecap="round" stroke-linejoin="round"/>
<path d="M201.637 195.369H187.055C185.654 195.369 184.518 196.553 184.518 198.013V213.212C184.518 214.672 185.654 215.856 187.055 215.856H201.637C203.038 215.856 204.174 214.672 204.174 213.212V198.013C204.174 196.553 203.038 195.369 201.637 195.369Z" stroke="#263238" stroke-linecap="round" stroke-linejoin="round"/>
<path d="M222.952 195.369H208.37C206.969 195.369 205.833 196.553 205.833 198.013V213.212C205.833 214.672 206.969 215.856 208.37 215.856H222.952C224.353 215.856 225.489 214.672 225.489 213.212V198.013C225.489 196.553 224.353 195.369 222.952 195.369Z" stroke="#263238" stroke-linecap="round" stroke-linejoin="round"/>
<path d="M244.272 195.369H229.69C228.289 195.369 227.153 196.553 227.153 198.013V213.212C227.153 214.672 228.289 215.856 229.69 215.856H244.272C245.673 215.856 246.809 214.672 246.809 213.212V198.013C246.809 196.553 245.673 195.369 244.272 195.369Z" stroke="#263238" stroke-linecap="round" stroke-linejoin="round"/>
<path d="M265.593 195.369H251.011C249.61 195.369 248.474 196.553 248.474 198.013V213.212C248.474 214.672 249.61 215.856 251.011 215.856H265.593C266.994 215.856 268.13 214.672 268.13 213.212V198.013C268.13 196.553 266.994 195.369 265.593 195.369Z" stroke="#263238" stroke-linecap="round" stroke-linejoin="round"/>
<path d="M58.0369 120.28V21.4912" stroke="#263238" stroke-linecap="round" stroke-linejoin="round"/>
<path d="M64.3264 93.1036H60.9541V113.564H64.3264V93.1036Z" fill="#263238" stroke="#263238" stroke-linecap="round" stroke-linejoin="round"/>
<path d="M55.1254 93.1036H51.7532V113.564H55.1254V93.1036Z" fill="#263238" stroke="#263238" stroke-linecap="round" stroke-linejoin="round"/>
<path d="M12.9502 120.28H267.233" stroke="#263238" stroke-width="2" stroke-linecap="round" stroke-linejoin="round"/>
<path d="M209.567 120.28V21.4912" stroke="#263238" stroke-linecap="round" stroke-linejoin="round"/>
<path d="M207.417 93.1036H204.044V113.564H207.417V93.1036Z" fill="#263238" stroke="#263238" stroke-linecap="round" stroke-linejoin="round"/>
<path d="M215.55 93.1036H212.178V113.564H215.55V93.1036Z" fill="#263238" stroke="#263238" stroke-linecap="round" stroke-linejoin="round"/>
<path d="M61.4698 203.9H69.019C69.6853 203.9 70.3243 204.176 70.7955 204.667C71.2666 205.158 71.5313 205.824 71.5313 206.518V231.217H58.9575V206.518C58.9575 205.824 59.2222 205.158 59.6934 204.667C60.1645 204.176 60.8035 203.9 61.4698 203.9Z" fill="white" stroke="#263238" stroke-linecap="round" stroke-linejoin="round"/>
<path d="M61.4698 203.9H69.019C69.6853 203.9 70.3243 204.176 70.7955 204.667C71.2666 205.158 71.5313 205.824 71.5313 206.518V211.038H58.9575V206.518C58.9575 205.824 59.2222 205.158 59.6934 204.667C60.1645 204.176 60.8035 203.9 61.4698 203.9Z" fill="white" stroke="#263238" stroke-linecap="round" stroke-linejoin="round"/>
<path d="M61.5989 212.062V228.547" stroke="#263238" stroke-linecap="round" stroke-linejoin="round"/>
<path d="M65.5852 212.062V228.547" stroke="#263238" stroke-linecap="round" stroke-linejoin="round"/>
<path d="M263.475 196.05H203.517C202.455 196.05 201.594 196.947 201.594 198.054V229.532C201.594 230.639 202.455 231.536 203.517 231.536H263.475C264.536 231.536 265.397 230.639 265.397 229.532V198.054C265.397 196.947 264.536 196.05 263.475 196.05Z" fill="white" stroke="#263238" stroke-linecap="round" stroke-linejoin="round"/>
<path d="M262.94 198.285H249.752V205.641H262.94V198.285Z" fill="#696969" stroke="#263238" stroke-linecap="round" stroke-linejoin="round"/>
<path d="M252.762 212.521C252.762 212.87 252.663 213.21 252.478 213.5C252.292 213.789 252.028 214.015 251.719 214.148C251.411 214.281 251.071 214.316 250.743 214.248C250.416 214.18 250.115 214.013 249.879 213.766C249.642 213.52 249.481 213.206 249.416 212.865C249.351 212.523 249.385 212.169 249.512 211.848C249.64 211.526 249.857 211.251 250.135 211.058C250.412 210.864 250.739 210.761 251.073 210.761C251.521 210.761 251.951 210.946 252.267 211.277C252.584 211.607 252.762 212.054 252.762 212.521Z" fill="white" stroke="#263238" stroke-linecap="round" stroke-linejoin="round"/>
<path d="M256.442 214.276C257.375 214.276 258.131 213.488 258.131 212.515C258.131 211.543 257.375 210.755 256.442 210.755C255.509 210.755 254.753 211.543 254.753 212.515C254.753 213.488 255.509 214.276 256.442 214.276Z" fill="white" stroke="#263238" stroke-linecap="round" stroke-linejoin="round"/>
<path d="M261.81 214.276C262.743 214.276 263.499 213.488 263.499 212.515C263.499 211.543 262.743 210.755 261.81 210.755C260.877 210.755 260.121 211.543 260.121 212.515C260.121 213.488 260.877 214.276 261.81 214.276Z" fill="white" stroke="#263238" stroke-linecap="round" stroke-linejoin="round"/>
<path d="M252.762 219.225C252.763 219.573 252.665 219.914 252.48 220.205C252.296 220.495 252.032 220.722 251.724 220.856C251.415 220.99 251.075 221.026 250.747 220.959C250.419 220.892 250.118 220.724 249.881 220.478C249.644 220.232 249.482 219.919 249.417 219.577C249.351 219.235 249.384 218.881 249.512 218.559C249.639 218.237 249.856 217.962 250.134 217.768C250.412 217.574 250.739 217.471 251.073 217.471C251.52 217.471 251.949 217.655 252.265 217.984C252.582 218.313 252.761 218.759 252.762 219.225Z" fill="white" stroke="#263238" stroke-linecap="round" stroke-linejoin="round"/>
<path d="M258.124 219.225C258.126 219.574 258.028 219.915 257.842 220.205C257.657 220.496 257.393 220.723 257.085 220.857C256.776 220.991 256.436 221.026 256.107 220.958C255.779 220.891 255.477 220.723 255.241 220.476C255.004 220.23 254.843 219.915 254.778 219.573C254.713 219.231 254.747 218.877 254.876 218.555C255.004 218.233 255.222 217.958 255.501 217.765C255.779 217.572 256.107 217.469 256.441 217.471C256.887 217.472 257.314 217.658 257.63 217.986C257.945 218.315 258.123 218.76 258.124 219.225Z" fill="white" stroke="#263238" stroke-linecap="round" stroke-linejoin="round"/>
<path d="M263.493 219.225C263.494 219.574 263.396 219.915 263.211 220.205C263.026 220.496 262.762 220.723 262.453 220.857C262.144 220.991 261.804 221.026 261.476 220.958C261.147 220.891 260.846 220.723 260.609 220.476C260.373 220.23 260.212 219.915 260.147 219.573C260.082 219.231 260.116 218.877 260.244 218.555C260.373 218.233 260.59 217.958 260.869 217.765C261.148 217.572 261.475 217.469 261.81 217.471C262.256 217.472 262.683 217.658 262.998 217.986C263.313 218.315 263.491 218.76 263.493 219.225Z" fill="white" stroke="#263238" stroke-linecap="round" stroke-linejoin="round"/>
<path d="M252.762 225.966C252.762 226.315 252.663 226.655 252.478 226.945C252.292 227.234 252.028 227.46 251.719 227.593C251.411 227.726 251.071 227.761 250.743 227.693C250.416 227.625 250.115 227.458 249.879 227.211C249.642 226.965 249.481 226.651 249.416 226.31C249.351 225.968 249.385 225.614 249.512 225.293C249.64 224.971 249.857 224.696 250.135 224.503C250.412 224.309 250.739 224.206 251.073 224.206C251.521 224.206 251.951 224.391 252.267 224.722C252.584 225.052 252.762 225.5 252.762 225.966Z" fill="white" stroke="#263238" stroke-linecap="round" stroke-linejoin="round"/>
<path d="M258.124 225.966C258.124 226.315 258.025 226.656 257.839 226.945C257.653 227.235 257.389 227.461 257.08 227.594C256.771 227.727 256.431 227.761 256.103 227.693C255.776 227.624 255.475 227.456 255.239 227.209C255.003 226.962 254.842 226.648 254.778 226.306C254.713 225.964 254.748 225.61 254.876 225.288C255.005 224.967 255.223 224.692 255.501 224.5C255.78 224.307 256.107 224.205 256.441 224.206C256.888 224.208 257.316 224.394 257.632 224.724C257.947 225.054 258.124 225.501 258.124 225.966Z" fill="white" stroke="#263238" stroke-linecap="round" stroke-linejoin="round"/>
<path d="M263.493 225.966C263.493 226.315 263.394 226.656 263.208 226.945C263.022 227.235 262.758 227.461 262.449 227.594C262.14 227.727 261.8 227.761 261.472 227.693C261.144 227.624 260.843 227.456 260.607 227.209C260.371 226.962 260.211 226.648 260.146 226.306C260.082 225.964 260.116 225.61 260.245 225.288C260.374 224.967 260.591 224.692 260.87 224.5C261.148 224.307 261.475 224.205 261.81 224.206C262.257 224.208 262.685 224.394 263 224.724C263.316 225.054 263.493 225.501 263.493 225.966Z" fill="white" stroke="#263238" stroke-linecap="round" stroke-linejoin="round"/>
<path d="M244.556 213.47C244.556 222.035 243.942 228.975 243.174 228.975C242.406 228.975 241.798 222.035 241.798 213.47C241.798 204.904 242.412 197.964 243.174 197.964C243.935 197.964 244.556 204.91 244.556 213.47Z" fill="#696969" stroke="#263238" stroke-linecap="round" stroke-linejoin="round"/>
<path d="M236.367 199.316C235.477 199.271 234.574 199.245 233.665 199.245C217.817 199.245 204.973 205.833 204.973 213.97C204.973 222.107 217.817 228.694 233.665 228.694C234.574 228.694 235.508 228.694 236.367 228.63V199.316Z" fill="#696969" stroke="#263238" stroke-linecap="round" stroke-linejoin="round"/>
<path d="M43.0125 199.566H28.2888V204.361H43.0125V199.566Z" fill="#263238" stroke="#263238" stroke-linecap="round" stroke-linejoin="round"/>
<path d="M23.0243 203.081H48.5773L54.0503 224.963H17.5513L23.0243 203.081Z" fill="white" stroke="#263238" stroke-linecap="round" stroke-linejoin="round"/>
<path d="M54.0503 224.797H17.5513V231.532H54.0503V224.797Z" fill="#263238" stroke="#263238" stroke-linecap="round" stroke-linejoin="round"/>
<path d="M48.7001 203.56L48.5772 203.061H23.0242L22.9014 203.56C24.7441 212.203 29.824 218.407 35.8007 218.407C41.7774 218.407 46.8512 212.222 48.7001 203.56Z" fill="#696969" stroke="#263238" stroke-linecap="round" stroke-linejoin="round"/>
<path d="M29.5171 219.067H27.3672V223.222H29.5171V219.067Z" fill="white" stroke="#263238" stroke-linecap="round" stroke-linejoin="round"/>
<path d="M34.425 219.067H32.2751V223.222H34.425V219.067Z" fill="white" stroke="#263238" stroke-linecap="round" stroke-linejoin="round"/>
<path d="M39.3323 219.067H37.1824V223.222H39.3323V219.067Z" fill="white" stroke="#263238" stroke-linecap="round" stroke-linejoin="round"/>
<path d="M44.2405 219.067H42.0906V223.222H44.2405V219.067Z" fill="white" stroke="#263238" stroke-linecap="round" stroke-linejoin="round"/>
<path d="M118.632 35.2518C118.632 35.2518 105.469 39.8932 102.318 48.203C99.1666 56.5128 107.14 61.9225 109.363 63.2733C111.587 64.6241 113.258 71.5959 111.403 80.469C109.548 89.3422 103.989 92.6328 100.094 92.2615C96.1998 91.8902 95.4565 91.4869 95.4565 91.4869C95.4565 91.4869 96.0155 101.922 105.844 106.557C115.672 111.192 119.953 109.451 119.953 109.451C119.953 109.451 136.82 114.861 145.352 113.292C153.884 111.724 157.945 109.073 157.945 109.073C157.945 109.073 162.582 111.199 169.259 107.524C175.936 103.849 178.344 98.2474 178.344 98.2474C178.344 98.2474 168.7 98.0553 170.924 87.6201C173.148 77.1848 173.707 57.089 162.939 44.9124C152.171 32.7358 131.63 26.3658 118.632 35.2518Z" fill="#263238"/>
<mask id="mask0_24443_234038" style="mask-type:luminance" maskUnits="userSpaceOnUse" x="95" y="31" width="84" height="83">
<path d="M118.632 35.2507C118.632 35.2507 105.469 39.8921 102.318 48.2019C99.1666 56.5117 107.14 61.9214 109.363 63.2722C111.587 64.623 113.258 71.5948 111.403 80.4679C109.548 89.3411 103.989 92.6317 100.094 92.2604C96.1998 91.8891 95.4565 91.4858 95.4565 91.4858C95.4565 91.4858 96.0155 101.921 105.844 106.556C115.672 111.191 119.953 109.45 119.953 109.45C119.953 109.45 136.82 114.859 145.352 113.291C153.884 111.722 157.945 109.072 157.945 109.072C157.945 109.072 162.582 111.197 169.259 107.523C175.936 103.848 178.344 98.2463 178.344 98.2463C178.344 98.2463 168.7 98.0542 170.924 87.619C173.148 77.1837 173.707 57.0879 162.939 44.9113C152.171 32.7347 131.63 26.3647 118.632 35.2507Z" fill="white"/>
</mask>
<g mask="url(#mask0_24443_234038)">
<path d="M131.969 40.1036C131.969 40.1036 137.497 60.0266 149.168 66.6655C160.839 73.3043 168.824 81.3901 168.824 88.6051C168.824 95.8201 169.101 106.8 181.84 102.177" stroke="#6E6E6E" stroke-linecap="round" stroke-linejoin="round"/>
<path d="M135.568 35.7698C135.568 35.7698 151.084 40.6801 158.836 52.5174C166.588 64.3547 164.088 70.1292 167.159 76.8001C170.231 83.471 174.641 83.4454 174.641 83.4454" stroke="#6E6E6E" stroke-linecap="round" stroke-linejoin="round"/>
<path d="M133.91 37.7909C133.91 37.7909 147.203 44.7178 152.19 55.1147" stroke="#6E6E6E" stroke-linecap="round" stroke-linejoin="round"/>
<path d="M127.233 44.7189C127.233 44.7189 126.127 35.4808 135.267 34.3285" stroke="#6E6E6E" stroke-linecap="round" stroke-linejoin="round"/>
<path d="M108.977 60.6026C108.977 60.6026 100.114 56.2684 105.095 49.3415C110.077 42.4145 125.317 42.9907 125.317 42.9907" stroke="#6E6E6E" stroke-linecap="round" stroke-linejoin="round"/>
<path d="M123.658 49.0538C123.658 49.0538 108.7 53.9642 108.424 55.1165C108.148 56.2689 110.082 56.2689 110.082 56.2689" stroke="#6E6E6E" stroke-linecap="round" stroke-linejoin="round"/>
<path d="M129.198 37.2155C129.198 37.2155 127.257 34.6163 118.946 36.3513" stroke="#6E6E6E" stroke-linecap="round" stroke-linejoin="round"/>
<path d="M96.5205 101.312C96.5205 101.312 110.925 104.513 116.742 86.2997" stroke="#6E6E6E" stroke-linecap="round" stroke-linejoin="round"/>
<path d="M107.036 108.808C107.036 108.808 117.84 108.808 120.611 96.683" stroke="#6E6E6E" stroke-linecap="round" stroke-linejoin="round"/>
<path d="M155.237 89.1884C155.237 89.1884 153.296 110.552 166.294 112.876" stroke="#6E6E6E" stroke-linecap="round" stroke-linejoin="round"/>
</g>
<path d="M118.632 35.2518C118.632 35.2518 105.469 39.8932 102.318 48.203C99.1666 56.5128 107.14 61.9225 109.363 63.2733C111.587 64.6241 113.258 71.5959 111.403 80.469C109.548 89.3422 103.989 92.6328 100.094 92.2615C96.1998 91.8902 95.4565 91.4869 95.4565 91.4869C95.4565 91.4869 96.0155 101.922 105.844 106.557C115.672 111.192 119.953 109.451 119.953 109.451C119.953 109.451 136.82 114.861 145.352 113.292C153.884 111.724 157.945 109.073 157.945 109.073C157.945 109.073 162.582 111.199 169.259 107.524C175.936 103.849 178.344 98.2474 178.344 98.2474C178.344 98.2474 168.7 98.0553 170.924 87.6201C173.148 77.1848 173.707 57.089 162.939 44.9124C152.171 32.7358 131.63 26.3658 118.632 35.2518Z" stroke="#263238" stroke-linecap="round" stroke-linejoin="round"/>
<path d="M108.835 121.82C108.835 121.82 99.4128 121 94.7076 126.525C90.0024 132.05 67.4163 169.495 62.3118 177.101C57.2073 184.706 57.2073 198.176 66.6116 200.02C76.0158 201.864 85.0392 190.814 88.9951 185.692C90.9872 183.019 93.1524 180.49 95.4754 178.125C95.4754 178.125 93.7064 170.347 99.0074 157.863C104.308 145.379 108.043 135.558 109.806 130.238C111.569 124.918 108.835 121.82 108.835 121.82Z" fill="#FFBF9D"/>
<mask id="mask1_24443_234038" style="mask-type:luminance" maskUnits="userSpaceOnUse" x="58" y="121" width="53" height="80">
<path d="M108.835 121.82C108.835 121.82 99.4128 121 94.7076 126.525C90.0024 132.05 67.4163 169.495 62.3118 177.101C57.2073 184.706 57.2073 198.176 66.6116 200.02C76.0158 201.864 85.0392 190.814 88.9951 185.692C90.9872 183.019 93.1524 180.49 95.4754 178.125C95.4754 178.125 93.7064 170.347 99.0074 157.863C104.308 145.379 108.043 135.558 109.806 130.238C111.569 124.918 108.835 121.82 108.835 121.82Z" fill="white"/>
</mask>
<g mask="url(#mask1_24443_234038)">
<path opacity="0.1" d="M101.433 152.057L104.24 132.211C104.24 132.211 83.2021 174.003 77.25 182.691C73.6628 187.921 67.7843 194.797 65.917 199.803C66.1443 199.867 66.3777 199.931 66.6173 199.976C76.0461 201.82 85.0449 190.77 89.0007 185.648C90.9928 182.975 93.158 180.447 95.4811 178.081C95.4811 178.081 93.712 170.303 99.0131 157.819C99.8648 155.83 100.672 153.91 101.433 152.057Z" fill="black"/>
</g>
<path d="M108.836 121.82C108.836 121.82 99.4128 121 94.7076 126.525C90.0024 132.05 67.4163 169.495 62.3118 177.101C57.2073 184.706 57.2073 198.176 66.6116 200.02C76.0158 201.864 85.0392 190.814 88.9951 185.692C90.9872 183.019 93.1524 180.49 95.4754 178.125C95.4754 178.125 93.7064 170.347 99.0074 157.863C104.308 145.379 108.043 135.558 109.806 130.238C111.569 124.918 108.836 121.82 108.836 121.82Z" stroke="#263238" stroke-linecap="round" stroke-linejoin="round"/>
<path d="M122.19 99.7191C122.19 99.7191 123.369 106.063 121.797 112.203C120.224 118.342 120.814 118.342 116.883 119.975C114.3 120.998 111.586 121.62 108.83 121.819C108.83 121.819 101.569 141.665 96.0716 151.082C90.574 160.5 89.0015 170.928 91.1576 176.248C92.5541 179.585 94.4171 182.687 96.6859 185.455C96.6859 185.455 99.8247 197.119 98.0556 204.66C96.2866 212.202 91.9745 223.079 90.2055 239.449C88.4364 255.819 89.4192 274.436 89.4192 274.436H192.479C192.479 274.436 192.282 253.77 190.12 236.786C187.958 219.801 185.409 218.406 181.901 208.169C178.394 197.932 177.97 197.529 177.97 190.371C177.97 183.214 179.936 163.969 179.346 151.082C178.756 138.195 175.814 128.163 170.71 124.476C165.605 120.788 153.431 119.354 148.916 116.089C144.401 112.824 147.147 91.9407 147.147 91.9407C147.147 91.9407 139.493 97.0623 133.209 98.8996C129.639 100.015 125.876 100.295 122.19 99.7191Z" fill="#FFBF9D"/>
<mask id="mask2_24443_234038" style="mask-type:luminance" maskUnits="userSpaceOnUse" x="89" y="91" width="104" height="184">
<path d="M122.189 99.7207C122.189 99.7207 123.369 106.065 121.796 112.205C120.224 118.344 120.814 118.344 116.882 119.977C114.299 121 111.586 121.621 108.829 121.82C108.829 121.82 101.569 141.667 96.0714 151.084C90.5738 160.501 89.0013 170.93 91.1573 176.25C92.5539 179.586 94.4168 182.689 96.6856 185.456C96.6856 185.456 99.8245 197.121 98.0554 204.662C96.2863 212.204 91.9743 223.081 90.2052 239.45C88.4362 255.82 89.419 274.437 89.419 274.437H192.479C192.479 274.437 192.282 253.772 190.12 236.787C187.958 219.803 185.409 218.407 181.901 208.17C178.394 197.934 177.97 197.53 177.97 190.373C177.97 183.215 179.936 163.971 179.346 151.084C178.756 138.197 175.814 128.165 170.71 124.477C165.605 120.79 153.43 119.356 148.916 116.091C144.401 112.826 147.147 91.9423 147.147 91.9423C147.147 91.9423 139.493 97.0639 133.209 98.9012C129.639 100.017 125.876 100.297 122.189 99.7207Z" fill="white"/>
</mask>
<g mask="url(#mask2_24443_234038)">
<path opacity="0.1" d="M140.746 117.772C147.393 121.729 156.815 123.572 166.201 122.254C160.366 120.045 152.343 118.617 148.867 116.095C144.352 112.823 147.098 91.9465 147.098 91.9465C143.684 94.1832 140.099 96.1232 136.379 97.7467L136.772 103.681C136.772 103.681 132.435 112.779 140.746 117.772Z" fill="black"/>
<path opacity="0.1" d="M168.161 157.874C168.161 157.874 166.177 173.181 169.746 176.081C173.314 178.981 175.305 177.733 175.305 168.22C175.305 158.706 168.953 155.806 168.161 157.874Z" fill="black"/>
</g>
<path d="M122.19 99.7191C122.19 99.7191 123.369 106.063 121.797 112.203C120.224 118.342 120.814 118.342 116.883 119.975C114.3 120.998 111.586 121.62 108.83 121.819C108.83 121.819 101.569 141.665 96.0716 151.082C90.574 160.5 89.0015 170.928 91.1576 176.248C92.5541 179.585 94.4171 182.687 96.6859 185.455C96.6859 185.455 99.8247 197.119 98.0556 204.66C96.2866 212.202 91.9745 223.079 90.2055 239.449C88.4364 255.819 89.4192 274.436 89.4192 274.436H192.479C192.479 274.436 192.282 253.77 190.12 236.786C187.958 219.801 185.409 218.406 181.901 208.169C178.394 197.932 177.97 197.529 177.97 190.371C177.97 183.214 179.936 163.969 179.346 151.082C178.756 138.195 175.814 128.163 170.71 124.476C165.605 120.788 153.431 119.354 148.916 116.089C144.401 112.824 147.147 91.9407 147.147 91.9407C147.147 91.9407 139.493 97.0623 133.209 98.8996C129.639 100.015 125.876 100.295 122.19 99.7191Z" stroke="#263238" stroke-linecap="round" stroke-linejoin="round"/>
<path d="M122.49 108.016C126.161 109.711 130.317 109.864 134.094 108.445C136.692 107.491 142.964 102.818 146.41 100.161C146.637 95.641 147.122 91.9407 147.122 91.9407C147.122 91.9407 139.468 97.0623 133.185 98.8996C129.622 100.011 125.868 100.291 122.189 99.7191C122.623 102.461 122.724 105.248 122.49 108.016Z" fill="#263238" stroke="#263238" stroke-linecap="round" stroke-linejoin="round"/>
<path d="M190.12 236.85C189.248 230 188.314 225.685 187.276 222.298C146.121 237.58 108.307 230.621 92.3122 226.312C91.3738 230.669 90.6643 235.076 90.1869 239.513C88.4179 255.883 89.4007 274.5 89.4007 274.5H192.479C192.479 274.5 192.282 253.803 190.12 236.85Z" fill="#263238" stroke="#263238" stroke-linecap="round" stroke-linejoin="round"/>
<path d="M141.674 272.343C141.674 272.343 150.537 251.472 166.244 243.124" stroke="#6E6E6E" stroke-linecap="round" stroke-linejoin="round"/>
<path d="M138.529 269.358C140.131 262.884 143.279 256.937 147.682 252.073" stroke="#6E6E6E" stroke-linecap="round" stroke-linejoin="round"/>
<path d="M101.342 242.233C101.342 242.233 106.489 253.257 116.213 259.519" stroke="#6E6E6E" stroke-linecap="round" stroke-linejoin="round"/>
<path d="M177.946 190.372C177.946 186.921 178.4 180.679 178.806 173.726C175.046 173.874 169.629 173.393 165.581 170.135C158.707 164.61 155.175 153.97 156.152 142.51C156.828 134.668 159.524 125.577 161.158 120.622C159.641 120.174 157.81 119.694 156.342 119.252C155.489 122.53 154.309 127.85 152.227 134.124C148.695 144.764 142.399 158.675 129.647 158.88C116.895 159.085 106.876 154.969 109.419 143.304C111.262 134.847 113.639 125.321 114.8 120.718C112.853 121.301 110.851 121.67 108.83 121.819C108.83 121.819 101.569 141.665 96.0717 151.083C90.5741 160.5 89.0016 170.929 91.1576 176.249C92.5542 179.585 94.4172 182.687 96.6859 185.455C96.6859 185.455 99.8248 197.119 98.0557 204.661C96.5508 211.127 93.1847 220.026 91.1331 232.631C96.4587 235.678 108.713 240.954 131.06 242.106C156.428 243.386 180.814 235.998 189.623 232.945C187.577 219.501 185.157 217.535 181.914 208.137C178.339 197.939 177.946 197.529 177.946 190.372Z" fill="#B10000" fill-opacity="0.76"/>
<mask id="mask3_24443_234038" style="mask-type:luminance" maskUnits="userSpaceOnUse" x="95" y="127" width="100" height="124">
<path d="M182.718 198.12C182.718 194.669 183.173 188.427 183.578 181.475C179.819 181.622 174.401 181.142 170.354 177.883C163.48 172.358 159.948 161.718 160.925 150.258C161.6 142.416 164.297 133.325 165.931 128.37C164.414 127.922 162.583 127.442 161.115 127C160.261 130.278 159.082 135.598 157 141.872C153.468 152.512 147.172 166.423 134.42 166.628C121.668 166.833 111.649 162.717 114.192 151.052C116.035 142.595 118.412 133.069 119.573 128.466C117.625 129.05 115.624 129.419 113.602 129.567C113.602 129.567 106.342 149.413 100.844 158.831C95.3468 168.248 93.7743 178.677 95.9304 183.997C97.3269 187.333 99.1899 190.436 101.459 193.203C101.459 193.203 104.597 204.867 102.828 212.409C101.324 218.875 97.9574 227.774 95.9058 240.379C101.231 243.427 113.486 248.702 135.832 249.854C161.201 251.135 185.587 243.747 194.395 240.693C192.35 227.249 189.93 225.283 186.687 215.885C183.112 205.687 182.718 205.277 182.718 198.12Z" fill="white"/>
</mask>
<g mask="url(#mask3_24443_234038)">
<path opacity="0.1" d="M158.732 248.971C170.838 247.448 182.771 244.686 194.359 240.725C192.313 227.281 189.893 225.316 186.65 215.918C183.112 205.675 182.718 205.278 182.718 198.12C182.718 194.67 183.173 188.428 183.578 181.475C179.819 181.622 174.401 181.142 170.353 177.884C164.923 173.524 161.594 165.963 160.906 157.34C156.711 165.925 148.345 180.944 139.174 185.726C126.066 192.557 117.878 188.716 106.821 184.017C98.8358 180.624 96.3788 181.245 95.9795 184.113C97.3623 187.413 99.2021 190.485 101.44 193.229C101.44 193.229 102.054 195.63 102.62 198.946C105.402 201.289 109.266 203.684 114.604 206.212C128.117 212.614 150.636 216.456 162.516 223.709C174.395 230.962 164.973 238.222 159.235 247.185C158.913 247.721 158.738 248.339 158.732 248.971Z" fill="black"/>
</g>
<path d="M177.946 190.372C177.946 186.921 178.4 180.679 178.806 173.726C175.046 173.874 169.629 173.393 165.581 170.135C158.707 164.61 155.175 153.97 156.152 142.51C156.828 134.668 159.524 125.577 161.158 120.622C159.641 120.174 157.81 119.694 156.342 119.252C155.489 122.53 154.309 127.85 152.227 134.124C148.695 144.764 142.399 158.675 129.647 158.88C116.895 159.085 106.876 154.969 109.419 143.304C111.262 134.847 113.639 125.321 114.8 120.718C112.853 121.301 110.851 121.67 108.83 121.819C108.83 121.819 101.569 141.665 96.0717 151.083C90.5741 160.5 89.0016 170.929 91.1576 176.249C92.5542 179.585 94.4172 182.687 96.6859 185.455C96.6859 185.455 99.8248 197.119 98.0557 204.661C96.5508 211.127 93.1847 220.026 91.1331 232.631C96.4587 235.678 108.713 240.954 131.06 242.106C156.428 243.386 180.814 235.998 189.623 232.945C187.577 219.501 185.157 217.535 181.914 208.137C178.339 197.939 177.946 197.529 177.946 190.372Z" stroke="#263238" stroke-linecap="round" stroke-linejoin="round"/>
<path d="M100.623 187.163C100.623 187.163 104.794 189.238 111.679 189.238" stroke="#263238" stroke-linecap="round" stroke-linejoin="round"/>
<path d="M71.2005 114.655C71.2005 114.655 70.8504 111.697 70.5863 107.011C70.3221 102.325 69.972 98.6306 72.128 98.1377C74.2841 97.6447 75.0826 99.8598 75.0826 102.453C75.0826 105.045 76.2681 110.711 77.5396 114.533C78.8112 118.355 80.1441 120.455 78.1539 121.441C76.1637 122.427 71.7964 118.355 71.2005 114.655Z" fill="#FFBF9D" stroke="#263238" stroke-linecap="round" stroke-linejoin="round"/>
<path d="M113.104 108.368C113.104 108.368 109.296 110.73 108.805 114.04C108.313 117.35 110.107 119.712 115.076 119.098C120.045 118.483 119.806 115.257 119.806 115.257L113.104 108.368Z" fill="#B10000" fill-opacity="0.76" stroke="#263238" stroke-linecap="round" stroke-linejoin="round"/>
<path d="M115.513 112.011C115.513 112.011 112.399 113.554 111.508 115.257C110.617 116.96 109.284 118.349 112.399 117.267C115.513 116.185 116.705 111.877 115.513 112.011Z" fill="#FFBF9D" stroke="#263238" stroke-linecap="round" stroke-linejoin="round"/>
<path d="M109.739 114.571C106.09 115.493 104.106 114.34 102.116 114.801C101.682 114.906 101.243 114.983 100.801 115.032C97.9756 114.014 95.6537 112.298 93.1598 110.435C92.2016 109.718 91.2065 108.976 90.15 108.252C83.8538 103.918 73.5651 101.12 73.1474 101.005C72.9746 100.961 72.7921 100.989 72.6394 101.084C72.4866 101.179 72.376 101.333 72.3315 101.513C72.287 101.692 72.3123 101.883 72.4018 102.043C72.4913 102.203 72.6378 102.32 72.8095 102.369C72.914 102.369 83.301 105.218 89.3944 109.411C90.4264 110.122 91.4153 110.858 92.3613 111.568C97.177 115.16 104.001 119.084 110.095 117.042C110.232 117.019 110.36 116.952 110.459 116.849C110.558 116.747 110.624 116.615 110.648 116.472C111.587 115.211 109.739 114.571 109.739 114.571Z" fill="#FFBF9D" stroke="#263238" stroke-linecap="round" stroke-linejoin="round"/>
<path d="M110.402 115.404C108.56 116.084 106.578 116.243 104.658 115.865" stroke="#263238" stroke-linecap="round" stroke-linejoin="round"/>
<path d="M68.9824 114.86C68.9824 114.86 66.4271 117.523 67.0168 118.746" stroke="#263238" stroke-linecap="round" stroke-linejoin="round"/>
<path d="M86.0775 126.934L83.7188 124.072C83.7188 124.072 85.4141 116.467 86.2741 114.245C86.6825 113.292 86.9934 112.296 87.2016 111.275C87.8159 109.994 88.1353 107.754 87.306 106.889C86.5751 106.127 85.666 107.056 85.4633 107.293H85.4325C85.5016 107.06 85.5168 106.814 85.4768 106.574C85.4368 106.335 85.3428 106.108 85.2024 105.914C85.0621 105.72 84.8794 105.563 84.6696 105.456C84.4597 105.35 84.2286 105.297 83.9952 105.302C82.1033 105.174 80.4325 106.755 80.4325 106.755C80.4325 106.755 80.0947 105.302 79.032 105.302C77.9693 105.302 75.8379 107.273 75.0086 108.381C74.9472 108.464 74.8919 108.547 74.8305 108.643C72.8403 110.609 69.0012 114.873 69.0012 114.873C69.0012 114.873 69.984 110.577 71.7469 108.733C73.5099 106.889 78.2273 103.413 77.4411 101.78C76.6548 100.148 74.3022 101.78 74.3022 101.78C74.3022 101.78 63.7002 107.709 63.5036 110.167C63.3071 112.625 60.5552 123.061 61.538 124.085C62.5208 125.109 75.6659 133.496 75.6659 133.496C75.6659 133.496 66.0405 153.547 62.5085 162.35C58.9766 171.152 55.4385 180.147 55.0454 188.131C54.6522 196.114 59.3451 202.048 67.4164 202.048C75.4878 202.048 79.0013 196.319 80.1807 185.269C81.36 174.219 87.048 141.063 87.4412 135.333C87.8343 129.604 88.4178 129.802 86.0775 126.934Z" fill="#FFBF9D"/>
<mask id="mask4_24443_234038" style="mask-type:luminance" maskUnits="userSpaceOnUse" x="55" y="101" width="33" height="102">
<path d="M86.078 126.935L83.7193 124.074C83.7193 124.074 85.4146 116.468 86.2746 114.247C86.683 113.293 86.9939 112.298 87.2021 111.276C87.8163 109.996 88.1358 107.755 87.3065 106.891C86.5755 106.129 85.6665 107.057 85.4637 107.294H85.433C85.5021 107.062 85.5173 106.816 85.4773 106.576C85.4373 106.336 85.3432 106.11 85.2029 105.916C85.0626 105.721 84.8799 105.564 84.6701 105.458C84.4602 105.351 84.229 105.298 83.9957 105.303C82.1038 105.175 80.433 106.756 80.433 106.756C80.433 106.756 80.0952 105.303 79.0325 105.303C77.9698 105.303 75.8384 107.275 75.0091 108.383C74.9477 108.466 74.8924 108.549 74.831 108.645C72.8408 110.61 69.0017 114.874 69.0017 114.874C69.0017 114.874 69.9845 110.578 71.7474 108.735C73.5103 106.891 78.2278 103.415 77.4416 101.782C76.6553 100.15 74.3027 101.782 74.3027 101.782C74.3027 101.782 63.7007 107.71 63.5041 110.169C63.3076 112.627 60.5557 123.062 61.5385 124.087C62.5213 125.111 75.6664 133.498 75.6664 133.498C75.6664 133.498 66.041 153.549 62.509 162.351C58.9771 171.154 55.439 180.149 55.0458 188.132C54.6527 196.115 59.3456 202.05 67.4169 202.05C75.4882 202.05 79.0018 196.32 80.1811 185.27C81.3605 174.221 87.0485 141.065 87.4417 135.335C87.8348 129.605 88.4183 129.804 86.078 126.935Z" fill="white"/>
</mask>
<g mask="url(#mask4_24443_234038)">
<path opacity="0.1" d="M80.1749 185.258C81.3542 174.208 87.0422 141.052 87.4354 135.322C87.8285 129.593 88.4182 129.797 86.0656 126.929L83.7068 124.068C83.7068 124.068 85.4022 116.462 86.2621 114.241C86.6705 113.287 86.9814 112.291 87.1896 111.27C87.658 110.248 87.8492 109.113 87.7425 107.986L87.5766 108.223C87.5766 108.223 80.8198 123.53 81.2252 126.43C81.5385 128.728 67.0421 125.015 61.4954 124.023V124.068C62.4782 125.086 75.6232 133.479 75.6232 133.479C75.6232 133.479 82.38 135.117 81.1884 141.737C79.9967 148.357 72.2325 189.963 66.5875 199.995C66.2078 200.664 65.772 201.296 65.2853 201.884C65.9774 201.984 66.6751 202.037 67.3738 202.044C75.4635 202.037 78.9955 196.308 80.1749 185.258Z" fill="black"/>
</g>
<path d="M86.0775 126.934L83.7188 124.072C83.7188 124.072 85.4141 116.467 86.2741 114.245C86.6825 113.292 86.9934 112.296 87.2016 111.275C87.8159 109.994 88.1353 107.754 87.306 106.889C86.5751 106.127 85.666 107.056 85.4633 107.293H85.4325C85.5016 107.06 85.5168 106.814 85.4768 106.574C85.4368 106.335 85.3428 106.108 85.2024 105.914C85.0621 105.72 84.8794 105.563 84.6696 105.456C84.4597 105.35 84.2286 105.297 83.9952 105.302C82.1033 105.174 80.4325 106.755 80.4325 106.755C80.4325 106.755 80.0947 105.302 79.032 105.302C77.9693 105.302 75.8379 107.273 75.0086 108.381C74.9472 108.464 74.8919 108.547 74.8305 108.643C72.8403 110.609 69.0012 114.873 69.0012 114.873C69.0012 114.873 69.984 110.577 71.7469 108.733C73.5099 106.889 78.2273 103.413 77.4411 101.78C76.6548 100.148 74.3022 101.78 74.3022 101.78C74.3022 101.78 63.7002 107.709 63.5036 110.167C63.3071 112.625 60.5552 123.061 61.538 124.085C62.5208 125.109 75.6659 133.496 75.6659 133.496C75.6659 133.496 66.0405 153.547 62.5085 162.35C58.9766 171.152 55.4385 180.147 55.0454 188.131C54.6522 196.114 59.3451 202.048 67.4164 202.048C75.4878 202.048 79.0013 196.319 80.1807 185.269C81.36 174.219 87.048 141.063 87.4412 135.333C87.8343 129.604 88.4178 129.802 86.0775 126.934Z" fill="#FFBF9D" stroke="#FFBF9D" stroke-linecap="round" stroke-linejoin="round"/>
<path d="M80.4143 106.741C80.4143 106.741 75.9364 113.425 74.9904 115.275C74.3678 116.713 74.0054 118.258 73.9216 119.834" stroke="#263238" stroke-linecap="round" stroke-linejoin="round"/>
<path d="M79.364 121.685C79.5347 119.806 80.0147 117.972 80.7829 116.263C81.9685 113.548 85.4451 107.3 85.4451 107.3" stroke="#263238" stroke-linecap="round" stroke-linejoin="round"/>
<path d="M167.509 153.515C167.509 153.515 175.937 190.058 177.62 197.081C179.303 204.104 185.15 215.346 193.75 213.412C202.35 211.479 203.154 200.346 202.964 189.808C202.773 179.27 196.852 155.756 192.638 144.866C188.424 133.976 182.81 125.935 175.071 123.65C167.331 121.364 162.933 122.069 162.933 122.069" fill="#FFBF9D"/>
<mask id="mask5_24443_234038" style="mask-type:luminance" maskUnits="userSpaceOnUse" x="162" y="121" width="41" height="93">
<path d="M167.509 153.517C167.509 153.517 175.937 190.059 177.62 197.082C179.303 204.105 185.151 215.347 193.75 213.414C202.35 211.48 203.155 200.347 202.964 189.81C202.774 179.272 196.852 155.758 192.638 144.868C188.425 133.978 182.81 125.937 175.071 123.652C167.331 121.366 162.933 122.07 162.933 122.07" fill="white"/>
</mask>
<g mask="url(#mask5_24443_234038)">
<path opacity="0.1" d="M202.989 189.808C202.823 179.271 196.877 155.756 192.663 144.866C188.449 133.977 182.835 125.936 175.095 123.65C173.005 123.027 170.874 122.561 168.719 122.255C171.987 123.701 182.847 129.937 189.199 150.846C196.742 175.666 201.484 194.283 193.566 202.971C189.413 207.516 185.581 207.753 181.588 206.479C184.463 211.018 188.615 214.565 193.75 213.413C202.344 211.479 203.154 200.359 202.989 189.808Z" fill="black"/>
</g>
<path d="M167.509 153.515C167.509 153.515 175.937 190.058 177.62 197.081C179.303 204.104 185.15 215.346 193.75 213.412C202.35 211.479 203.154 200.346 202.964 189.808C202.773 179.27 196.852 155.756 192.638 144.866C188.424 133.976 182.81 125.935 175.071 123.65C167.331 121.364 162.933 122.069 162.933 122.069" stroke="#263238" stroke-linecap="round" stroke-linejoin="round"/>
<path d="M163.756 148.848L107.146 149.783L114.579 170.173H114.659C116.311 175.295 124.966 179.232 135.402 179.232C145.451 179.232 153.83 175.596 155.931 170.737H156.066L163.756 148.848Z" fill="#263238" stroke="#263238" stroke-linecap="round" stroke-linejoin="round"/>
<path d="M135.402 157.9C151.065 157.9 163.762 153.847 163.762 148.848C163.762 143.848 151.065 139.795 135.402 139.795C119.739 139.795 107.042 143.848 107.042 148.848C107.042 153.847 119.739 157.9 135.402 157.9Z" fill="#FFBF9D" stroke="#263238" stroke-linecap="round" stroke-linejoin="round"/>
<path d="M135.402 156.324C150.064 156.324 161.95 152.744 161.95 148.328C161.95 143.912 150.064 140.332 135.402 140.332C120.74 140.332 108.854 143.912 108.854 148.328C108.854 152.744 120.74 156.324 135.402 156.324Z" fill="#FFBF9D" stroke="#263238" stroke-linecap="round" stroke-linejoin="round"/>
<mask id="mask6_24443_234038" style="mask-type:luminance" maskUnits="userSpaceOnUse" x="107" y="132" width="59" height="25">
<path d="M165.009 132.81H107.49V149.366H109.536C111.311 153.207 122.214 156.139 135.414 156.139C147.89 156.139 158.314 153.508 160.918 149.987L161.532 149.251L164.149 147.887L165.009 132.81Z" fill="white"/>
</mask>
<g mask="url(#mask6_24443_234038)">
<path d="M109.284 148.271C109.284 148.271 108.056 143.623 108.946 143.47C109.837 143.316 111.28 145.525 112.712 144.033C114.143 142.541 115.224 140.48 117.196 140.666C119.167 140.851 118.989 143.098 120.267 143.098C121.545 143.098 123.136 140.666 123.854 143.284C124.573 145.902 122.626 149.827 121.342 151.318C120.058 152.81 117.22 152.439 113.277 152.439C109.333 152.439 109.284 148.271 109.284 148.271Z" fill="#B10000" fill-opacity="0.76" stroke="#263238" stroke-linecap="round" stroke-linejoin="round"/>
<path d="M113.252 152.44L112.011 147.05" stroke="#263238" stroke-linecap="round" stroke-linejoin="round"/>
<path d="M115.126 152.311L115.427 143.49" stroke="#263238" stroke-linecap="round" stroke-linejoin="round"/>
<path d="M130.568 143.643C130.568 143.643 128.934 141.165 130.273 139.462C131.612 137.759 132.202 139.155 134.726 139.462C137.251 139.77 136.956 137.298 139.923 138.227C142.89 139.155 143.817 141.46 144.677 141.46C145.537 141.46 147.497 140.218 149.278 142.1C151.06 143.982 150.611 145.045 151.502 145.045C152.392 145.045 153.732 143.803 154.026 145.973C154.321 148.143 153.412 149.533 151.95 149.533C150.488 149.533 147.792 146.901 144.972 147.209C142.153 147.516 141.109 148.758 139.032 148.291C136.956 147.823 136.803 146.748 135.912 146.434C135.021 146.12 132.226 146.588 130.998 145.794C129.769 145 131.145 143.624 131.145 143.624L130.568 143.643Z" fill="#B10000" fill-opacity="0.76" stroke="#263238" stroke-linecap="round" stroke-linejoin="round"/>
<path d="M138.166 143.97C138.166 143.97 136.532 141.493 137.871 139.79C139.21 138.087 139.8 139.482 142.324 139.79C144.849 140.097 144.554 137.626 147.521 138.554C150.488 139.482 151.384 141.806 152.275 141.806C153.166 141.806 155.094 140.564 156.876 142.446C158.657 144.329 158.215 145.391 159.106 145.391C159.996 145.391 161.329 144.149 161.63 146.32C161.931 148.49 161.016 149.879 159.548 149.879C158.08 149.879 155.389 147.248 152.57 147.555C149.75 147.863 148.712 149.105 146.63 148.637C144.548 148.17 144.406 147.094 143.516 146.781C142.625 146.467 139.83 146.934 138.602 146.14C137.373 145.347 138.749 143.97 138.749 143.97H138.166Z" fill="#B10000" fill-opacity="0.76" stroke="#263238" stroke-linecap="round" stroke-linejoin="round"/>
<path d="M153.289 142.869L151.95 149.527L154.493 149.968L156.852 144.264" fill="#B10000" fill-opacity="0.76"/>
<path d="M153.289 142.869L151.95 149.527L154.493 149.968L156.852 144.264" stroke="#263238" stroke-linecap="round" stroke-linejoin="round"/>
<path d="M145.863 140.705L146.157 144.264" stroke="#263238" stroke-linecap="round" stroke-linejoin="round"/>
<path d="M137.25 148.438C137.25 148.438 135.616 145.966 136.955 144.264C138.295 142.561 138.884 143.95 141.409 144.264C143.933 144.577 143.632 142.093 146.605 143.022C149.578 143.95 150.463 146.274 151.354 146.274C152.244 146.274 154.179 145.038 155.961 146.914C157.742 148.79 157.293 149.852 158.184 149.852C159.075 149.852 160.414 148.617 160.709 150.781C161.004 152.945 160.094 154.34 158.633 154.34C157.171 154.34 154.474 151.709 151.655 152.016C148.835 152.324 147.791 153.566 145.715 153.105C143.639 152.644 143.485 151.555 142.594 151.248C141.704 150.941 138.909 151.402 137.68 150.608C136.452 149.814 137.834 148.438 137.834 148.438H137.25Z" fill="#B10000" fill-opacity="0.76" stroke="#263238" stroke-linecap="round" stroke-linejoin="round"/>
<path d="M138.283 150.281C141.204 150.281 143.571 148.713 143.571 146.779C143.571 144.845 141.204 143.277 138.283 143.277C135.362 143.277 132.994 144.845 132.994 146.779C132.994 148.713 135.362 150.281 138.283 150.281Z" fill="#808080" stroke="#263238" stroke-linecap="round" stroke-linejoin="round"/>
<path d="M138.166 146.158C138.166 146.158 136.704 144.327 137.134 143.898C137.564 143.469 139.591 143.348 139.837 143.975C140.083 144.603 138.166 146.158 138.166 146.158Z" fill="#FFBF9D"/>
<path d="M137.533 146.409C137.533 146.409 134.462 146.095 134.179 145.615C133.897 145.135 134.972 143.982 135.875 144.219C136.778 144.456 137.533 146.409 137.533 146.409Z" fill="#FFBF9D"/>
<path d="M137.41 146.876C137.41 146.876 135.07 148.246 134.339 148.066C133.608 147.887 132.957 146.62 133.817 146.312C134.677 146.005 137.41 146.876 137.41 146.876Z" fill="#FFBF9D"/>
<path d="M137.871 147.221C137.871 147.221 137.951 149.289 137.257 149.545C136.563 149.801 134.69 149.314 134.886 148.681C135.083 148.047 137.871 147.221 137.871 147.221Z" fill="#FFBF9D"/>
<path d="M138.596 147.221C138.596 147.221 141.053 148.501 140.899 149.02C140.746 149.538 138.983 150.172 138.375 149.66C137.767 149.148 138.596 147.221 138.596 147.221Z" fill="#FFBF9D"/>
<path d="M139.056 146.868C139.056 146.868 142.128 146.458 142.613 146.868C143.098 147.278 142.711 148.577 141.741 148.565C140.77 148.552 139.056 146.868 139.056 146.868Z" fill="#FFBF9D"/>
<path d="M138.903 146.403C138.903 146.403 140.395 144.585 141.169 144.585C141.943 144.585 143.215 145.635 142.57 146.122C141.925 146.608 138.903 146.403 138.903 146.403Z" fill="#FFBF9D"/>
<path d="M153.725 153.381C156.646 153.381 159.014 151.813 159.014 149.879C159.014 147.945 156.646 146.377 153.725 146.377C150.804 146.377 148.436 147.945 148.436 149.879C148.436 151.813 150.804 153.381 153.725 153.381Z" fill="#808080" stroke="#263238" stroke-linecap="round" stroke-linejoin="round"/>
<path d="M153.608 149.251C153.608 149.251 152.146 147.427 152.576 146.998C153.006 146.569 155.033 146.447 155.279 147.068C155.524 147.689 153.608 149.251 153.608 149.251Z" fill="#FFBF9D"/>
<path d="M152.976 149.501C152.976 149.501 149.905 149.194 149.622 148.708C149.34 148.221 150.415 147.075 151.318 147.312C152.22 147.549 152.976 149.501 152.976 149.501Z" fill="#FFBF9D"/>
<path d="M152.853 149.969C152.853 149.969 150.506 151.339 149.782 151.166C149.057 150.993 148.4 149.713 149.26 149.406C150.119 149.098 152.853 149.969 152.853 149.969Z" fill="#FFBF9D"/>
<path d="M153.313 150.334C153.313 150.334 153.393 152.402 152.699 152.658C152.005 152.914 150.132 152.427 150.328 151.794C150.525 151.16 153.313 150.334 153.313 150.334Z" fill="#FFBF9D"/>
<path d="M154.038 150.334C154.038 150.334 156.495 151.614 156.342 152.126C156.188 152.639 154.425 153.279 153.817 152.767C153.209 152.254 154.038 150.334 154.038 150.334Z" fill="#FFBF9D"/>
<path d="M154.499 149.968C154.499 149.968 157.571 149.558 158.056 149.968C158.541 150.377 158.154 151.683 157.184 151.664C156.213 151.645 154.499 149.968 154.499 149.968Z" fill="#FFBF9D"/>
<path d="M154.37 149.501C154.37 149.501 155.863 147.683 156.636 147.683C157.41 147.683 158.682 148.733 158.037 149.213C157.392 149.693 154.37 149.501 154.37 149.501Z" fill="#FFBF9D"/>
<path d="M133.989 147.344C133.989 147.344 135.279 142.696 134.339 142.543C133.399 142.389 131.882 144.598 130.42 143.106C128.958 141.614 127.847 139.54 125.758 139.739C123.67 139.937 123.915 142.171 122.589 142.171C121.262 142.171 119.597 139.739 118.848 142.357C118.098 144.975 120.156 148.9 121.465 150.392C122.773 151.883 125.764 151.512 129.868 151.512C133.971 151.512 133.989 147.344 133.989 147.344Z" fill="#B10000" fill-opacity="0.76" stroke="#263238" stroke-linecap="round" stroke-linejoin="round"/>
<path d="M129.867 151.512L131.163 146.121" stroke="#263238" stroke-linecap="round" stroke-linejoin="round"/>
<path d="M127.914 151.383L127.607 142.561" stroke="#263238" stroke-linecap="round" stroke-linejoin="round"/>
<path d="M121.212 153.842C124.133 153.842 126.501 152.274 126.501 150.34C126.501 148.406 124.133 146.838 121.212 146.838C118.291 146.838 115.924 148.406 115.924 150.34C115.924 152.274 118.291 153.842 121.212 153.842Z" fill="#808080" stroke="#263238" stroke-linecap="round" stroke-linejoin="round"/>
<path d="M121.09 149.718C121.09 149.718 119.622 147.888 120.052 147.459C120.482 147.03 122.509 146.908 122.754 147.535C123 148.163 121.09 149.718 121.09 149.718Z" fill="#FFBF9D"/>
<path d="M120.475 149.962C120.475 149.962 117.404 149.654 117.121 149.174C116.839 148.694 117.914 147.542 118.817 147.779C119.72 148.016 120.475 149.962 120.475 149.962Z" fill="#FFBF9D"/>
<path d="M120.335 150.424C120.335 150.424 117.994 151.794 117.264 151.614C116.533 151.435 115.881 150.168 116.741 149.86C117.601 149.553 120.335 150.424 120.335 150.424Z" fill="#FFBF9D"/>
<path d="M120.801 150.801C120.801 150.801 120.881 152.869 120.187 153.125C119.493 153.381 117.619 152.894 117.816 152.26C118.012 151.627 120.801 150.801 120.801 150.801Z" fill="#FFBF9D"/>
<path d="M121.52 150.795C121.52 150.795 123.977 152.075 123.823 152.594C123.67 153.112 121.907 153.746 121.305 153.234C120.703 152.722 121.52 150.795 121.52 150.795Z" fill="#FFBF9D"/>
<path d="M121.98 150.422C121.98 150.422 125.052 150.012 125.537 150.422C126.022 150.832 125.641 152.131 124.665 152.119C123.688 152.106 121.98 150.422 121.98 150.422Z" fill="#FFBF9D"/>
<path d="M121.852 149.962C121.852 149.962 123.344 148.143 124.125 148.143C124.905 148.143 126.17 149.193 125.519 149.68C124.868 150.166 121.852 149.962 121.852 149.962Z" fill="#FFBF9D"/>
<path d="M123.08 150.268C123.08 150.268 125.537 146.427 131.606 145.787C131.606 145.787 134.579 146.715 133.387 146.869C132.195 147.022 127.748 146.555 124.173 150.428C120.598 154.302 123.08 150.268 123.08 150.268Z" fill="#FFBF9D" stroke="#263238" stroke-linecap="round" stroke-linejoin="round"/>
<path d="M137.343 151.634C137.343 153.426 134.978 154.886 132.054 154.886C129.13 154.886 126.765 153.426 126.765 151.634C126.765 149.841 129.13 148.388 132.054 148.388C134.978 148.388 137.343 149.841 137.343 151.634Z" fill="#808080" stroke="#263238" stroke-linecap="round" stroke-linejoin="round"/>
<path d="M131.937 151.062C131.937 151.062 130.469 149.366 130.899 148.969C131.329 148.572 133.356 148.463 133.602 149.039C133.848 149.615 131.937 151.062 131.937 151.062Z" fill="#FFBF9D"/>
<path d="M131.299 151.287C131.299 151.287 128.227 150.999 127.951 150.551C127.674 150.103 128.737 149.04 129.646 149.27C130.555 149.501 131.299 151.287 131.299 151.287Z" fill="#FFBF9D"/>
<path d="M131.176 151.703C131.176 151.703 128.836 152.984 128.105 152.811C127.374 152.638 126.723 151.466 127.577 151.178C128.431 150.89 131.176 151.703 131.176 151.703Z" fill="#FFBF9D"/>
<path d="M131.643 152.062C131.643 152.062 131.723 153.983 131.028 154.214C130.334 154.444 128.467 154.002 128.664 153.413C128.86 152.824 131.643 152.062 131.643 152.062Z" fill="#FFBF9D"/>
<path d="M132.362 152.055C132.362 152.055 134.819 153.252 134.671 153.72C134.524 154.187 132.755 154.789 132.147 154.322C131.538 153.854 132.362 152.055 132.362 152.055Z" fill="#FFBF9D"/>
<path d="M132.822 151.703C132.822 151.703 135.893 151.326 136.385 151.703C136.876 152.081 136.483 153.291 135.506 153.278C134.53 153.265 132.822 151.703 132.822 151.703Z" fill="#FFBF9D"/>
<path d="M132.693 151.281C132.693 151.281 134.192 149.598 134.966 149.604C135.74 149.61 137.011 150.577 136.366 151.025C135.721 151.473 132.693 151.281 132.693 151.281Z" fill="#FFBF9D"/>
<path d="M148.774 151.787C148.774 153.586 146.409 155.039 143.485 155.039C140.561 155.039 138.197 153.586 138.197 151.787C138.197 149.988 140.568 148.541 143.485 148.541C146.403 148.541 148.774 149.994 148.774 151.787Z" fill="#808080" stroke="#263238" stroke-linecap="round" stroke-linejoin="round"/>
<path d="M143.368 151.211C143.368 151.211 141.9 149.514 142.336 149.124C142.772 148.733 144.793 148.611 145.039 149.188C145.285 149.764 143.368 151.211 143.368 151.211Z" fill="#FFBF9D"/>
<path d="M142.736 151.441C142.736 151.441 139.664 151.159 139.382 150.705C139.099 150.25 140.168 149.194 141.077 149.424C141.986 149.655 142.736 151.441 142.736 151.441Z" fill="#FFBF9D"/>
<path d="M142.588 151.876C142.588 151.876 140.242 153.156 139.517 152.983C138.792 152.81 138.135 151.639 138.995 151.351C139.855 151.063 142.588 151.876 142.588 151.876Z" fill="#FFBF9D"/>
<path d="M143.074 152.215C143.074 152.215 143.154 154.136 142.46 154.366C141.766 154.597 139.899 154.155 140.095 153.566C140.292 152.977 143.074 152.215 143.074 152.215Z" fill="#FFBF9D"/>
<path d="M143.817 152.215C143.817 152.215 146.274 153.406 146.127 153.88C145.979 154.354 144.21 154.943 143.602 154.475C142.994 154.008 143.817 152.215 143.817 152.215Z" fill="#FFBF9D"/>
<path d="M144.254 151.878C144.254 151.878 147.325 151.493 147.816 151.878C148.308 152.262 147.915 153.465 146.944 153.452C145.974 153.44 144.254 151.878 144.254 151.878Z" fill="#FFBF9D"/>
<path d="M144.13 151.442C144.13 151.442 145.623 149.752 146.396 149.758C147.17 149.764 148.442 150.731 147.797 151.179C147.152 151.627 144.13 151.442 144.13 151.442Z" fill="#FFBF9D"/>
<path d="M137.189 146.87C137.189 146.87 135.641 151.185 129.818 153.208C129.818 153.208 126.747 152.997 127.853 152.568C128.958 152.139 133.418 151.55 136.059 146.947C138.7 142.344 137.189 146.87 137.189 146.87Z" fill="#FFBF9D" stroke="#263238" stroke-linecap="round" stroke-linejoin="round"/>
<path d="M151.28 148.501C151.28 148.501 149.732 152.816 143.909 154.839C143.909 154.839 140.838 154.628 141.943 154.199C143.049 153.77 147.509 153.181 150.15 148.585C152.791 143.988 151.28 148.501 151.28 148.501Z" fill="#FFBF9D" stroke="#263238" stroke-linecap="round" stroke-linejoin="round"/>
<path d="M114.118 153.547C114.118 153.547 110.703 151.69 113.381 151.069C116.059 150.448 117.386 153.854 117.982 152.157C118.578 150.461 119.407 149.469 121.293 149.962C123.178 150.454 121.293 152.1 123.264 152.593C125.236 153.086 123.449 149.315 127.024 151.197C130.599 153.079 129.56 155.403 131.495 155.557C133.43 155.711 133.123 151.844 135.648 152.311C138.172 152.778 136.987 153.393 138.621 153.7C140.255 154.008 140.549 152.311 142.183 153.393C143.817 154.475 144.855 155.557 145.746 154.942C146.637 154.328 146.36 153.547 147.976 153.239C149.591 152.932 149.757 152.311 150.943 150.762C152.128 149.213 153.916 151.402 155.697 151.402C157.478 151.402 157.626 151.402 158.516 149.545C158.762 149.016 159.14 148.564 159.61 148.237C160.079 147.911 160.625 147.722 161.188 147.689C161.188 147.689 162.675 149.232 160.746 151.088C158.817 152.945 151.238 157.279 145.304 157.9C139.37 158.521 131.047 159.289 123.774 158.207C116.501 157.125 114.118 153.547 114.118 153.547Z" fill="#B10000" fill-opacity="0.76" stroke="#263238" stroke-linecap="round" stroke-linejoin="round"/>
<path d="M140.899 149.034C140.899 149.034 143.356 145.193 149.425 144.552C149.425 144.552 152.398 145.481 151.207 145.634C150.015 145.788 145.568 145.327 141.993 149.194C138.418 153.061 140.899 149.034 140.899 149.034Z" fill="#FFBF9D" stroke="#263238" stroke-linecap="round" stroke-linejoin="round"/>
</g>
<path d="M127.411 46.6344C127.411 46.6344 113.375 53.1644 111.44 58.3372C109.505 63.51 110.58 68.6956 108.848 74.5471C107.116 80.3985 103.449 83.3242 106.256 91.6532C109.063 99.9822 118.787 103.58 122.675 105.385C126.363 107.102 130.546 107.263 134.346 105.834C138.031 104.483 149.033 95.7056 149.033 95.7056C149.033 95.7056 150.114 97.2805 154.862 95.4816C159.61 93.6826 162.233 84.675 160.912 80.6226C159.592 76.5701 153.781 79.4958 153.781 79.4958C153.781 79.4958 125.685 62.1656 127.411 46.6344Z" fill="#FFBF9D"/>
<mask id="mask7_24443_234038" style="mask-type:luminance" maskUnits="userSpaceOnUse" x="105" y="46" width="57" height="61">
<path d="M127.411 46.6337C127.411 46.6337 113.375 53.1637 111.44 58.3365C109.505 63.5093 110.58 68.6949 108.848 74.5463C107.116 80.3978 103.448 83.3235 106.256 91.6524C109.063 99.9814 118.786 103.579 122.675 105.385C126.363 107.101 130.546 107.262 134.345 105.833C138.031 104.482 149.032 95.7049 149.032 95.7049C149.032 95.7049 150.113 97.2798 154.862 95.4808C159.61 93.6819 162.233 84.6743 160.912 80.6218C159.591 76.5694 153.781 79.4951 153.781 79.4951C153.781 79.4951 125.684 62.1649 127.411 46.6337Z" fill="white"/>
</mask>
<g mask="url(#mask7_24443_234038)">
<path opacity="0.1" d="M153.756 79.4966C148.969 76.432 144.433 72.961 140.193 69.119C141.367 73.6452 143.756 84.01 143.148 91.2635C142.356 100.777 134.02 104.503 126.876 105.348C125.918 105.457 125.451 105.815 125.353 106.347C128.325 107.096 131.443 106.923 134.321 105.847C138.007 104.496 149.008 95.7193 149.008 95.7193C149.008 95.7193 150.089 97.2942 154.837 95.4952C159.585 93.6962 162.208 84.6887 160.888 80.6362C159.567 76.5837 153.756 79.4966 153.756 79.4966Z" fill="black"/>
</g>
<path d="M127.411 46.6344C127.411 46.6344 113.375 53.1644 111.44 58.3372C109.505 63.51 110.58 68.6956 108.848 74.5471C107.116 80.3985 103.449 83.3242 106.256 91.6532C109.063 99.9822 118.787 103.58 122.675 105.385C126.363 107.102 130.546 107.263 134.346 105.834C138.031 104.483 149.033 95.7056 149.033 95.7056C149.033 95.7056 150.114 97.2805 154.862 95.4816C159.61 93.6826 162.233 84.675 160.912 80.6226C159.592 76.5701 153.781 79.4958 153.781 79.4958C153.781 79.4958 125.685 62.1656 127.411 46.6344Z" stroke="#263238" stroke-linecap="round" stroke-linejoin="round"/>
<path d="M121.797 71.166C121.486 72.8288 120.649 74.3348 119.419 75.4425C117.478 77.0174 115.967 78.1442 117.908 79.9239C119.849 81.7037 121.367 81.0443 121.367 81.0443" stroke="#263238" stroke-linecap="round" stroke-linejoin="round"/>
<path d="M119.204 87.1526C119.204 87.1526 122.663 89.6238 127.626 86.0259" stroke="#263238" stroke-linecap="round" stroke-linejoin="round"/>
<path d="M127.196 84.2249C127.196 84.2249 126.766 85.3452 128.707 87.3746" stroke="#263238" stroke-linecap="round" stroke-linejoin="round"/>
<path d="M112.724 71.391C113.627 70.7592 114.698 70.4412 115.785 70.4826C116.872 70.524 117.918 70.9226 118.774 71.6215" stroke="#263238" stroke-linecap="round" stroke-linejoin="round"/>
<path d="M127.847 72.0681C127.847 72.0681 130.439 69.5905 134.327 72.5162" stroke="#263238" stroke-linecap="round" stroke-linejoin="round"/>
<path d="M112.938 65.0909C112.938 65.0909 115.967 61.0385 119.849 62.8374" stroke="#263238" stroke-width="3" stroke-linecap="round" stroke-linejoin="round"/>
<path d="M125.684 63.0675C125.684 63.0675 129.788 60.5899 133.461 65.0905" stroke="#263238" stroke-width="3" stroke-linecap="round" stroke-linejoin="round"/>
<path d="M197.509 200.245C195.874 197.366 193.651 194.898 190.997 193.017C188.342 191.136 185.323 189.887 182.153 189.361C171.201 187.441 160.918 187.076 157.208 185.142C153.498 183.209 151.649 178.996 149.622 176.179C147.236 173.14 144.389 170.528 141.194 168.446C138.67 166.865 137.319 168.1 137.822 169.854C138.326 171.608 140.187 172.665 141.508 174.771C142.377 176.231 143 177.836 143.35 179.515C143.35 179.515 140.15 180.04 133.572 175.302C126.993 170.565 122.116 167.217 121.44 168.798C121.036 169.671 120.917 170.658 121.102 171.608C121.102 171.608 117.896 169.502 117.417 171.788C116.938 174.073 120.955 178.83 120.955 178.83C120.955 178.83 122.14 180.59 123.989 183.049C126.443 186.557 129.97 189.09 133.989 190.232C139.554 191.986 144.272 193.567 147.306 194.976C150.341 196.384 168.879 210.609 180.851 214.476C192.823 218.343 198.382 213.068 200.568 208.676C201.89 205.902 202.417 202.791 202.086 199.713" fill="#FFBF9D"/>
<mask id="mask8_24443_234038" style="mask-type:luminance" maskUnits="userSpaceOnUse" x="117" y="167" width="86" height="49">
<path d="M197.509 200.243C195.874 197.364 193.651 194.896 190.997 193.015C188.342 191.134 185.323 189.886 182.153 189.359C171.201 187.439 160.918 187.074 157.208 185.14C153.498 183.207 151.649 178.994 149.622 176.178C147.236 173.139 144.389 170.526 141.194 168.444C138.67 166.863 137.319 168.098 137.822 169.852C138.326 171.606 140.187 172.663 141.508 174.769C142.377 176.229 143 177.834 143.35 179.513C143.35 179.513 140.15 180.038 133.572 175.3C126.993 170.563 122.116 167.215 121.44 168.796C121.036 169.669 120.917 170.656 121.102 171.606C121.102 171.606 117.896 169.5 117.417 171.786C116.938 174.071 120.955 178.828 120.955 178.828C120.955 178.828 122.14 180.588 123.989 183.047C126.443 186.555 129.97 189.088 133.989 190.23C139.554 191.984 144.272 193.565 147.306 194.974C150.341 196.382 168.879 210.607 180.851 214.474C192.823 218.341 198.382 213.066 200.568 208.674C201.89 205.901 202.417 202.789 202.086 199.711" fill="white"/>
</mask>
<g mask="url(#mask8_24443_234038)">
<path opacity="0.1" d="M202.061 199.718L197.509 200.243C197.163 199.573 196.769 198.93 196.33 198.322C195.712 200.041 194.772 201.614 193.566 202.951C185.624 211.638 178.75 204.596 170.144 201.299C161.539 198.002 144.346 188.886 135.611 189.302C134.16 189.37 132.706 189.321 131.262 189.155C132.139 189.569 133.042 189.922 133.965 190.211C139.53 191.965 144.247 193.546 147.282 194.955C150.316 196.363 168.854 210.589 180.826 214.455C192.798 218.322 198.357 213.047 200.544 208.655C201.861 205.889 202.388 202.787 202.061 199.718Z" fill="black"/>
</g>
<path d="M197.509 200.245C195.874 197.366 193.651 194.898 190.997 193.017C188.342 191.136 185.323 189.887 182.153 189.361C171.201 187.441 160.918 187.076 157.208 185.142C153.498 183.209 151.649 178.996 149.622 176.179C147.236 173.14 144.389 170.528 141.194 168.446C138.67 166.865 137.319 168.1 137.822 169.854C138.326 171.608 140.187 172.665 141.508 174.771C142.377 176.231 143 177.836 143.35 179.515C143.35 179.515 140.15 180.04 133.572 175.302C126.993 170.565 122.116 167.217 121.44 168.798C121.036 169.671 120.917 170.658 121.102 171.608C121.102 171.608 117.896 169.502 117.417 171.788C116.938 174.073 120.955 178.83 120.955 178.83C120.955 178.83 122.14 180.59 123.989 183.049C126.443 186.557 129.97 189.09 133.989 190.232C139.554 191.986 144.272 193.567 147.306 194.976C150.341 196.384 168.879 210.609 180.851 214.476C192.823 218.343 198.382 213.068 200.568 208.676C201.89 205.902 202.417 202.791 202.086 199.713" stroke="#263238" stroke-linecap="round" stroke-linejoin="round"/>
<path d="M121.158 171.607C121.158 171.607 128.345 177.913 129.979 179.424C131.176 180.45 132.519 181.278 133.959 181.876" stroke="#263238" stroke-linecap="round" stroke-linejoin="round"/>
<path d="M118.922 174.891C118.922 174.891 125.807 183.214 130.341 185.275" stroke="#263238" stroke-linecap="round" stroke-linejoin="round"/>
</svg>
