<svg width="249" height="228" viewBox="0 0 249 228" fill="none" xmlns="http://www.w3.org/2000/svg">
    <path d="M1 218.854H247.536" stroke="#263238" stroke-linecap="round" stroke-linejoin="round"/>
    <path d="M1 224.505H247.536" stroke="#263238" stroke-linecap="round" stroke-linejoin="round"/>
    <path d="M18.5799 124.11H4.44176C3.08337 124.11 1.98218 125.211 1.98218 126.57V140.708C1.98218 142.066 3.08337 143.167 4.44176 143.167H18.5799C19.9383 143.167 21.0395 142.066 21.0395 140.708V126.57C21.0395 125.211 19.9383 124.11 18.5799 124.11Z" stroke="#263238" stroke-linecap="round" stroke-linejoin="round"/>
    <path d="M39.2515 124.11H25.1134C23.755 124.11 22.6538 125.211 22.6538 126.57V140.708C22.6538 142.066 23.755 143.167 25.1134 143.167H39.2515C40.6099 143.167 41.7111 142.066 41.7111 140.708V126.57C41.7111 125.211 40.6099 124.11 39.2515 124.11Z" stroke="#263238" stroke-linecap="round" stroke-linejoin="round"/>
    <path d="M59.9227 124.11H45.7845C44.4261 124.11 43.325 125.211 43.325 126.57V140.708C43.325 142.066 44.4261 143.167 45.7845 143.167H59.9227C61.2811 143.167 62.3823 142.066 62.3823 140.708V126.57C62.3823 125.211 61.2811 124.11 59.9227 124.11Z" stroke="#263238" stroke-linecap="round" stroke-linejoin="round"/>
    <path d="M80.5877 124.11H66.4496C65.0912 124.11 63.99 125.211 63.99 126.57V140.708C63.99 142.066 65.0912 143.167 66.4496 143.167H80.5877C81.9461 143.167 83.0473 142.066 83.0473 140.708V126.57C83.0473 125.211 81.9461 124.11 80.5877 124.11Z" stroke="#263238" stroke-linecap="round" stroke-linejoin="round"/>
    <path d="M101.259 124.11H87.1207C85.7623 124.11 84.6611 125.211 84.6611 126.57V140.708C84.6611 142.066 85.7623 143.167 87.1207 143.167H101.259C102.617 143.167 103.718 142.066 103.718 140.708V126.57C103.718 125.211 102.617 124.11 101.259 124.11Z" stroke="#263238" stroke-linecap="round" stroke-linejoin="round"/>
    <path d="M121.93 124.11H107.792C106.434 124.11 105.333 125.211 105.333 126.57V140.708C105.333 142.066 106.434 143.167 107.792 143.167H121.93C123.289 143.167 124.39 142.066 124.39 140.708V126.57C124.39 125.211 123.289 124.11 121.93 124.11Z" stroke="#263238" stroke-linecap="round" stroke-linejoin="round"/>
    <path d="M142.596 124.11H128.458C127.099 124.11 125.998 125.211 125.998 126.57V140.708C125.998 142.066 127.099 143.167 128.458 143.167H142.596C143.954 143.167 145.055 142.066 145.055 140.708V126.57C145.055 125.211 143.954 124.11 142.596 124.11Z" stroke="#263238" stroke-linecap="round" stroke-linejoin="round"/>
    <path d="M163.267 124.11H149.129C147.77 124.11 146.669 125.211 146.669 126.57V140.708C146.669 142.066 147.77 143.167 149.129 143.167H163.267C164.625 143.167 165.726 142.066 165.726 140.708V126.57C165.726 125.211 164.625 124.11 163.267 124.11Z" stroke="#263238" stroke-linecap="round" stroke-linejoin="round"/>
    <path d="M183.938 124.11H169.8C168.442 124.11 167.34 125.211 167.34 126.57V140.708C167.34 142.066 168.442 143.167 169.8 143.167H183.938C185.296 143.167 186.398 142.066 186.398 140.708V126.57C186.398 125.211 185.296 124.11 183.938 124.11Z" stroke="#263238" stroke-linecap="round" stroke-linejoin="round"/>
    <path d="M204.604 124.11H190.465C189.107 124.11 188.006 125.211 188.006 126.57V140.708C188.006 142.066 189.107 143.167 190.465 143.167H204.604C205.962 143.167 207.063 142.066 207.063 140.708V126.57C207.063 125.211 205.962 124.11 204.604 124.11Z" stroke="#263238" stroke-linecap="round" stroke-linejoin="round"/>
    <path d="M225.275 124.11H211.137C209.778 124.11 208.677 125.211 208.677 126.57V140.708C208.677 142.066 209.778 143.167 211.137 143.167H225.275C226.633 143.167 227.734 142.066 227.734 140.708V126.57C227.734 125.211 226.633 124.11 225.275 124.11Z" stroke="#263238" stroke-linecap="round" stroke-linejoin="round"/>
    <path d="M245.946 124.11H231.808C230.449 124.11 229.348 125.211 229.348 126.57V140.708C229.348 142.066 230.449 143.167 231.808 143.167H245.946C247.304 143.167 248.405 142.066 248.405 140.708V126.57C248.405 125.211 247.304 124.11 245.946 124.11Z" stroke="#263238" stroke-linecap="round" stroke-linejoin="round"/>
    <path d="M18.5799 144.477H4.44176C3.08337 144.477 1.98218 145.578 1.98218 146.937V161.075C1.98218 162.433 3.08337 163.535 4.44176 163.535H18.5799C19.9383 163.535 21.0395 162.433 21.0395 161.075V146.937C21.0395 145.578 19.9383 144.477 18.5799 144.477Z" stroke="#263238" stroke-linecap="round" stroke-linejoin="round"/>
    <path d="M39.2515 144.477H25.1134C23.755 144.477 22.6538 145.578 22.6538 146.937V161.075C22.6538 162.433 23.755 163.535 25.1134 163.535H39.2515C40.6099 163.535 41.7111 162.433 41.7111 161.075V146.937C41.7111 145.578 40.6099 144.477 39.2515 144.477Z" stroke="#263238" stroke-linecap="round" stroke-linejoin="round"/>
    <path d="M59.9227 144.477H45.7845C44.4261 144.477 43.325 145.578 43.325 146.937V161.075C43.325 162.433 44.4261 163.535 45.7845 163.535H59.9227C61.2811 163.535 62.3823 162.433 62.3823 161.075V146.937C62.3823 145.578 61.2811 144.477 59.9227 144.477Z" stroke="#263238" stroke-linecap="round" stroke-linejoin="round"/>
    <path d="M80.5877 144.477H66.4496C65.0912 144.477 63.99 145.578 63.99 146.937V161.075C63.99 162.433 65.0912 163.535 66.4496 163.535H80.5877C81.9461 163.535 83.0473 162.433 83.0473 161.075V146.937C83.0473 145.578 81.9461 144.477 80.5877 144.477Z" stroke="#263238" stroke-linecap="round" stroke-linejoin="round"/>
    <path d="M101.259 144.477H87.1207C85.7623 144.477 84.6611 145.578 84.6611 146.937V161.075C84.6611 162.433 85.7623 163.535 87.1207 163.535H101.259C102.617 163.535 103.718 162.433 103.718 161.075V146.937C103.718 145.578 102.617 144.477 101.259 144.477Z" stroke="#263238" stroke-linecap="round" stroke-linejoin="round"/>
    <path d="M121.93 144.477H107.792C106.434 144.477 105.333 145.578 105.333 146.937V161.075C105.333 162.433 106.434 163.535 107.792 163.535H121.93C123.289 163.535 124.39 162.433 124.39 161.075V146.937C124.39 145.578 123.289 144.477 121.93 144.477Z" stroke="#263238" stroke-linecap="round" stroke-linejoin="round"/>
    <path d="M142.596 144.477H128.458C127.099 144.477 125.998 145.578 125.998 146.937V161.075C125.998 162.433 127.099 163.535 128.458 163.535H142.596C143.954 163.535 145.055 162.433 145.055 161.075V146.937C145.055 145.578 143.954 144.477 142.596 144.477Z" stroke="#263238" stroke-linecap="round" stroke-linejoin="round"/>
    <path d="M163.267 144.477H149.129C147.77 144.477 146.669 145.578 146.669 146.937V161.075C146.669 162.433 147.77 163.535 149.129 163.535H163.267C164.625 163.535 165.726 162.433 165.726 161.075V146.937C165.726 145.578 164.625 144.477 163.267 144.477Z" stroke="#263238" stroke-linecap="round" stroke-linejoin="round"/>
    <path d="M183.938 144.477H169.8C168.442 144.477 167.34 145.578 167.34 146.937V161.075C167.34 162.433 168.442 163.535 169.8 163.535H183.938C185.296 163.535 186.398 162.433 186.398 161.075V146.937C186.398 145.578 185.296 144.477 183.938 144.477Z" stroke="#263238" stroke-linecap="round" stroke-linejoin="round"/>
    <path d="M204.604 144.477H190.465C189.107 144.477 188.006 145.578 188.006 146.937V161.075C188.006 162.433 189.107 163.535 190.465 163.535H204.604C205.962 163.535 207.063 162.433 207.063 161.075V146.937C207.063 145.578 205.962 144.477 204.604 144.477Z" stroke="#263238" stroke-linecap="round" stroke-linejoin="round"/>
    <path d="M225.275 144.477H211.137C209.778 144.477 208.677 145.578 208.677 146.937V161.075C208.677 162.433 209.778 163.535 211.137 163.535H225.275C226.633 163.535 227.734 162.433 227.734 161.075V146.937C227.734 145.578 226.633 144.477 225.275 144.477Z" stroke="#263238" stroke-linecap="round" stroke-linejoin="round"/>
    <path d="M245.946 144.477H231.808C230.449 144.477 229.348 145.578 229.348 146.937V161.075C229.348 162.433 230.449 163.535 231.808 163.535H245.946C247.304 163.535 248.405 162.433 248.405 161.075V146.937C248.405 145.578 247.304 144.477 245.946 144.477Z" stroke="#263238" stroke-linecap="round" stroke-linejoin="round"/>
    <path d="M18.5799 164.845H4.44176C3.08337 164.845 1.98218 165.946 1.98218 167.304V181.442C1.98218 182.801 3.08337 183.902 4.44176 183.902H18.5799C19.9383 183.902 21.0395 182.801 21.0395 181.442V167.304C21.0395 165.946 19.9383 164.845 18.5799 164.845Z" stroke="#263238" stroke-linecap="round" stroke-linejoin="round"/>
    <path d="M39.2515 164.845H25.1134C23.755 164.845 22.6538 165.946 22.6538 167.304V181.442C22.6538 182.801 23.755 183.902 25.1134 183.902H39.2515C40.6099 183.902 41.7111 182.801 41.7111 181.442V167.304C41.7111 165.946 40.6099 164.845 39.2515 164.845Z" stroke="#263238" stroke-linecap="round" stroke-linejoin="round"/>
    <path d="M59.9227 164.845H45.7845C44.4261 164.845 43.325 165.946 43.325 167.304V181.442C43.325 182.801 44.4261 183.902 45.7845 183.902H59.9227C61.2811 183.902 62.3823 182.801 62.3823 181.442V167.304C62.3823 165.946 61.2811 164.845 59.9227 164.845Z" stroke="#263238" stroke-linecap="round" stroke-linejoin="round"/>
    <path d="M80.5877 164.845H66.4496C65.0912 164.845 63.99 165.946 63.99 167.304V181.442C63.99 182.801 65.0912 183.902 66.4496 183.902H80.5877C81.9461 183.902 83.0473 182.801 83.0473 181.442V167.304C83.0473 165.946 81.9461 164.845 80.5877 164.845Z" stroke="#263238" stroke-linecap="round" stroke-linejoin="round"/>
    <path d="M101.259 164.845H87.1207C85.7623 164.845 84.6611 165.946 84.6611 167.304V181.442C84.6611 182.801 85.7623 183.902 87.1207 183.902H101.259C102.617 183.902 103.718 182.801 103.718 181.442V167.304C103.718 165.946 102.617 164.845 101.259 164.845Z" stroke="#263238" stroke-linecap="round" stroke-linejoin="round"/>
    <path d="M121.93 164.845H107.792C106.434 164.845 105.333 165.946 105.333 167.304V181.442C105.333 182.801 106.434 183.902 107.792 183.902H121.93C123.289 183.902 124.39 182.801 124.39 181.442V167.304C124.39 165.946 123.289 164.845 121.93 164.845Z" stroke="#263238" stroke-linecap="round" stroke-linejoin="round"/>
    <path d="M142.596 164.845H128.458C127.099 164.845 125.998 165.946 125.998 167.304V181.442C125.998 182.801 127.099 183.902 128.458 183.902H142.596C143.954 183.902 145.055 182.801 145.055 181.442V167.304C145.055 165.946 143.954 164.845 142.596 164.845Z" stroke="#263238" stroke-linecap="round" stroke-linejoin="round"/>
    <path d="M163.267 164.845H149.129C147.77 164.845 146.669 165.946 146.669 167.304V181.442C146.669 182.801 147.77 183.902 149.129 183.902H163.267C164.625 183.902 165.726 182.801 165.726 181.442V167.304C165.726 165.946 164.625 164.845 163.267 164.845Z" stroke="#263238" stroke-linecap="round" stroke-linejoin="round"/>
    <path d="M183.938 164.845H169.8C168.442 164.845 167.34 165.946 167.34 167.304V181.442C167.34 182.801 168.442 183.902 169.8 183.902H183.938C185.296 183.902 186.398 182.801 186.398 181.442V167.304C186.398 165.946 185.296 164.845 183.938 164.845Z" stroke="#263238" stroke-linecap="round" stroke-linejoin="round"/>
    <path d="M204.604 164.845H190.465C189.107 164.845 188.006 165.946 188.006 167.304V181.442C188.006 182.801 189.107 183.902 190.465 183.902H204.604C205.962 183.902 207.063 182.801 207.063 181.442V167.304C207.063 165.946 205.962 164.845 204.604 164.845Z" stroke="#263238" stroke-linecap="round" stroke-linejoin="round"/>
    <path d="M225.275 164.845H211.137C209.778 164.845 208.677 165.946 208.677 167.304V181.442C208.677 182.801 209.778 183.902 211.137 183.902H225.275C226.633 183.902 227.734 182.801 227.734 181.442V167.304C227.734 165.946 226.633 164.845 225.275 164.845Z" stroke="#263238" stroke-linecap="round" stroke-linejoin="round"/>
    <path d="M245.946 164.845H231.808C230.449 164.845 229.348 165.946 229.348 167.304V181.442C229.348 182.801 230.449 183.902 231.808 183.902H245.946C247.304 183.902 248.405 182.801 248.405 181.442V167.304C248.405 165.946 247.304 164.845 245.946 164.845Z" stroke="#263238" stroke-linecap="round" stroke-linejoin="round"/>
    <path d="M18.5799 185.212H4.44176C3.08337 185.212 1.98218 186.313 1.98218 187.672V201.81C1.98218 203.168 3.08337 204.269 4.44176 204.269H18.5799C19.9383 204.269 21.0395 203.168 21.0395 201.81V187.672C21.0395 186.313 19.9383 185.212 18.5799 185.212Z" stroke="#263238" stroke-linecap="round" stroke-linejoin="round"/>
    <path d="M39.2515 185.212H25.1134C23.755 185.212 22.6538 186.313 22.6538 187.672V201.81C22.6538 203.168 23.755 204.269 25.1134 204.269H39.2515C40.6099 204.269 41.7111 203.168 41.7111 201.81V187.672C41.7111 186.313 40.6099 185.212 39.2515 185.212Z" stroke="#263238" stroke-linecap="round" stroke-linejoin="round"/>
    <path d="M59.9227 185.212H45.7845C44.4261 185.212 43.325 186.313 43.325 187.672V201.81C43.325 203.168 44.4261 204.269 45.7845 204.269H59.9227C61.2811 204.269 62.3823 203.168 62.3823 201.81V187.672C62.3823 186.313 61.2811 185.212 59.9227 185.212Z" stroke="#263238" stroke-linecap="round" stroke-linejoin="round"/>
    <path d="M80.5877 185.212H66.4496C65.0912 185.212 63.99 186.313 63.99 187.672V201.81C63.99 203.168 65.0912 204.269 66.4496 204.269H80.5877C81.9461 204.269 83.0473 203.168 83.0473 201.81V187.672C83.0473 186.313 81.9461 185.212 80.5877 185.212Z" stroke="#263238" stroke-linecap="round" stroke-linejoin="round"/>
    <path d="M101.259 185.212H87.1207C85.7623 185.212 84.6611 186.313 84.6611 187.672V201.81C84.6611 203.168 85.7623 204.269 87.1207 204.269H101.259C102.617 204.269 103.718 203.168 103.718 201.81V187.672C103.718 186.313 102.617 185.212 101.259 185.212Z" stroke="#263238" stroke-linecap="round" stroke-linejoin="round"/>
    <path d="M121.93 185.212H107.792C106.434 185.212 105.333 186.313 105.333 187.672V201.81C105.333 203.168 106.434 204.269 107.792 204.269H121.93C123.289 204.269 124.39 203.168 124.39 201.81V187.672C124.39 186.313 123.289 185.212 121.93 185.212Z" stroke="#263238" stroke-linecap="round" stroke-linejoin="round"/>
    <path d="M142.596 185.212H128.458C127.099 185.212 125.998 186.313 125.998 187.672V201.81C125.998 203.168 127.099 204.269 128.458 204.269H142.596C143.954 204.269 145.055 203.168 145.055 201.81V187.672C145.055 186.313 143.954 185.212 142.596 185.212Z" stroke="#263238" stroke-linecap="round" stroke-linejoin="round"/>
    <path d="M163.267 185.212H149.129C147.77 185.212 146.669 186.313 146.669 187.672V201.81C146.669 203.168 147.77 204.269 149.129 204.269H163.267C164.625 204.269 165.726 203.168 165.726 201.81V187.672C165.726 186.313 164.625 185.212 163.267 185.212Z" stroke="#263238" stroke-linecap="round" stroke-linejoin="round"/>
    <path d="M183.938 185.212H169.8C168.442 185.212 167.34 186.313 167.34 187.672V201.81C167.34 203.168 168.442 204.269 169.8 204.269H183.938C185.296 204.269 186.398 203.168 186.398 201.81V187.672C186.398 186.313 185.296 185.212 183.938 185.212Z" stroke="#263238" stroke-linecap="round" stroke-linejoin="round"/>
    <path d="M204.604 185.212H190.465C189.107 185.212 188.006 186.313 188.006 187.672V201.81C188.006 203.168 189.107 204.269 190.465 204.269H204.604C205.962 204.269 207.063 203.168 207.063 201.81V187.672C207.063 186.313 205.962 185.212 204.604 185.212Z" stroke="#263238" stroke-linecap="round" stroke-linejoin="round"/>
    <path d="M225.275 185.212H211.137C209.778 185.212 208.677 186.313 208.677 187.672V201.81C208.677 203.168 209.778 204.269 211.137 204.269H225.275C226.633 204.269 227.734 203.168 227.734 201.81V187.672C227.734 186.313 226.633 185.212 225.275 185.212Z" stroke="#263238" stroke-linecap="round" stroke-linejoin="round"/>
    <path d="M245.946 185.212H231.808C230.449 185.212 229.348 186.313 229.348 187.672V201.81C229.348 203.168 230.449 204.269 231.808 204.269H245.946C247.304 204.269 248.405 203.168 248.405 201.81V187.672C248.405 186.313 247.304 185.212 245.946 185.212Z" stroke="#263238" stroke-linecap="round" stroke-linejoin="round"/>
    <path d="M44.7124 115.361V23.4629" stroke="#263238" stroke-linecap="round" stroke-linejoin="round"/>
    <path d="M50.8115 90.0801H47.542V109.114H50.8115V90.0801Z" fill="#263238" stroke="#263238" stroke-linecap="round" stroke-linejoin="round"/>
    <path d="M41.8899 90.0801H38.6204V109.114H41.8899V90.0801Z" fill="#263238" stroke="#263238" stroke-linecap="round" stroke-linejoin="round"/>
    <path d="M1 115.36H247.536" stroke="#263238" stroke-width="2" stroke-linecap="round" stroke-linejoin="round"/>
    <path d="M191.627 115.361V23.4629" stroke="#263238" stroke-linecap="round" stroke-linejoin="round"/>
    <path d="M189.542 90.0801H186.273V109.114H189.542V90.0801Z" fill="#263238" stroke="#263238" stroke-linecap="round" stroke-linejoin="round"/>
    <path d="M197.427 90.0801H194.158V109.114H197.427V90.0801Z" fill="#263238" stroke="#263238" stroke-linecap="round" stroke-linejoin="round"/>
    <path d="M103.031 30.911C103.944 24.9993 107.05 19.648 111.73 15.9221C116.409 12.1963 122.32 10.3689 128.286 10.8037L129.527 10.8906C142.725 12.6271 148.617 24.8205 146.521 37.969L141.919 84.6337L141.695 94.2718L110.251 97.1247L110.933 76.757C110.933 76.757 98.3302 73.8544 99.0992 61.1029C99.4218 54.938 101.27 42.3105 103.031 30.911Z" fill="#FFBF9D"/>
    <path d="M110.822 76.7325C116.746 77.158 122.668 75.8659 127.877 73.0112C127.877 73.0112 123.449 82.2152 110.822 80.1437V76.7325Z" fill="#FF9A6C"/>
    <path d="M107.968 43.626C107.93 44.1001 108.079 44.5703 108.382 44.9365C108.686 45.3026 109.12 45.5356 109.593 45.5858C109.823 45.6191 110.057 45.6066 110.282 45.5491C110.507 45.4916 110.718 45.3902 110.904 45.2507C111.09 45.1112 111.246 44.9364 111.364 44.7364C111.481 44.5363 111.558 44.3149 111.59 44.0849C111.632 43.6088 111.485 43.1354 111.181 42.7665C110.877 42.3977 110.441 42.1629 109.965 42.1127C109.735 42.0795 109.5 42.0924 109.274 42.1507C109.048 42.209 108.837 42.3115 108.651 42.4523C108.465 42.593 108.309 42.7692 108.192 42.9707C108.075 43.1722 107.999 43.3949 107.968 43.626Z" fill="#263238"/>
    <path d="M105.314 37.3505C105.525 37.5986 106.976 36.6807 108.936 36.8295C110.896 36.9784 112.26 38.0699 112.483 37.8343C112.707 37.5986 112.397 37.2885 111.814 36.7923C111.007 36.1429 110.019 35.7574 108.985 35.6883C107.968 35.6202 106.955 35.8671 106.083 36.3954C105.45 36.8171 105.215 37.2389 105.314 37.3505Z" fill="#263238"/>
    <path d="M126.327 45.3746C126.285 45.8475 126.431 46.3178 126.732 46.6843C127.034 47.0508 127.467 47.2843 127.939 47.3345C128.169 47.3712 128.405 47.3613 128.631 47.3051C128.857 47.249 129.07 47.1479 129.256 47.0079C129.443 46.8678 129.599 46.6916 129.716 46.4899C129.832 46.2881 129.907 46.0649 129.936 45.8336C129.975 45.3601 129.828 44.89 129.528 44.5222C129.227 44.1544 128.795 43.9175 128.324 43.8613C128.093 43.8246 127.856 43.835 127.629 43.8919C127.402 43.9488 127.189 44.051 127.003 44.1923C126.816 44.3337 126.66 44.5113 126.544 44.7144C126.428 44.9176 126.354 45.1422 126.327 45.3746Z" fill="#263238"/>
    <path d="M124.541 39.1104C124.752 39.3709 126.203 38.4529 128.163 38.5894C130.123 38.7258 131.487 39.8298 131.71 39.6065C131.934 39.3833 131.623 39.0608 131.028 38.5522C130.226 37.9046 129.242 37.5231 128.212 37.4606C127.194 37.378 126.176 37.626 125.31 38.1677C124.677 38.5894 124.441 39.0359 124.541 39.1104Z" fill="#263238"/>
    <path d="M116.379 53.1154C115.37 52.7185 114.316 52.4477 113.241 52.3091C112.744 52.2223 112.273 52.0859 112.211 51.7386C112.212 51.2211 112.367 50.7156 112.658 50.2873L114.419 46.566C116.9 41.2942 118.674 36.9403 118.463 36.8411C118.252 36.7418 116.094 40.9469 113.638 46.2187C113.055 47.4591 112.484 48.6995 111.951 49.9399C111.589 50.5206 111.444 51.2103 111.541 51.8874C111.601 52.0679 111.701 52.2322 111.835 52.3677C111.968 52.5032 112.131 52.6063 112.31 52.6689C112.583 52.7657 112.866 52.8282 113.154 52.8549C114.213 53.0779 115.297 53.1655 116.379 53.1154Z" fill="#263238"/>
    <path d="M122.036 54.8887C121.726 54.8887 121.564 56.9726 119.642 58.3495C117.719 59.7263 115.461 59.3294 115.424 59.5899C115.387 59.8504 115.896 60.0364 116.851 60.1357C118.095 60.2442 119.338 59.9104 120.361 59.1929C121.341 58.5024 122.013 57.4565 122.234 56.2779C122.383 55.4345 122.185 54.8887 122.036 54.8887Z" fill="#263238"/>
    <path d="M124.591 31.4083C124.752 31.9541 126.724 31.8424 128.994 32.289C131.264 32.7356 133.087 33.5294 133.435 33.0333C133.584 32.81 133.298 32.289 132.579 31.7184C131.624 31.0182 130.524 30.5429 129.359 30.3281C128.195 30.1133 126.997 30.1645 125.856 30.478C124.987 30.7509 124.529 31.1478 124.591 31.4083Z" fill="#263238"/>
    <path d="M106.455 31.7297C106.765 32.2011 108.142 31.8413 109.767 31.9282C111.392 32.015 112.744 32.4492 113.091 32.0026C113.253 31.7917 113.091 31.3328 112.496 30.8614C111.723 30.3028 110.803 29.9839 109.85 29.9442C108.898 29.9045 107.954 30.1458 107.137 30.6381C106.542 31.0599 106.319 31.5064 106.455 31.7297Z" fill="#263238"/>
    <path d="M143.568 50.2001C143.617 49.734 143.759 49.2827 143.988 48.8736C144.216 48.4645 144.525 48.1062 144.897 47.8207C145.268 47.5351 145.694 47.3283 146.148 47.2127C146.602 47.0972 147.075 47.0754 147.538 47.1486C149.907 47.5456 152.499 49.0837 151.929 53.9834C151.023 62.6663 142.477 59.9622 142.489 59.7141C142.502 59.466 143.147 53.8469 143.568 50.2001Z" fill="#FFBF9D"/>
    <path d="M144.734 56.6495C144.734 56.6495 144.871 56.7735 145.119 56.9224C145.463 57.1116 145.868 57.1605 146.248 57.0588C146.848 56.7654 147.359 56.3157 147.725 55.757C148.092 55.1982 148.301 54.551 148.332 53.8833C148.426 53.1417 148.358 52.3883 148.133 51.6754C148.074 51.4029 147.951 51.1483 147.774 50.9327C147.597 50.717 147.372 50.5464 147.116 50.435C146.946 50.373 146.759 50.3713 146.588 50.4299C146.416 50.4886 146.27 50.6042 146.173 50.7575C146.037 50.9932 146.074 51.1668 146.024 51.1792C145.975 51.1916 145.851 51.018 146.024 50.6707C146.089 50.4576 146.23 50.2762 146.421 50.1621C146.55 50.0824 146.692 50.0293 146.842 50.0059C146.991 49.9824 147.143 49.9892 147.29 50.0256C147.616 50.133 147.912 50.3177 148.151 50.5639C148.391 50.8101 148.568 51.1106 148.666 51.4397C148.957 52.2323 149.047 53.0848 148.927 53.9206C148.691 55.6571 147.687 57.2077 146.334 57.431C146.094 57.4776 145.845 57.4683 145.609 57.4038C145.372 57.3393 145.154 57.2213 144.97 57.0588C144.722 56.8728 144.697 56.6743 144.734 56.6495Z" fill="#FF9A6C"/>
    <path d="M150.527 41.3557C149.808 43.8365 150.068 47.9919 147.848 47.4213C143.419 46.305 144.486 55.3724 142.365 54.4793C140.244 53.5862 138.421 51.031 138.284 45.4491C138.123 38.3787 140.963 33.2681 138.185 25.1558C137.295 23.5395 136.003 22.1801 134.434 21.2088C132.865 20.2375 131.073 19.6872 129.229 19.6111C127.371 19.5703 125.533 20.0047 123.89 20.873C122.247 21.7413 120.852 23.0147 119.839 24.5728C119.442 22.0919 118.239 18.3707 116.043 17.1302C114.943 16.5273 113.69 16.2612 112.439 16.3648C111.189 16.4685 109.996 16.9374 109.01 17.7132C108.068 18.5398 107.455 19.6793 107.287 20.9217C107.118 22.164 107.404 23.4255 108.092 24.4735C107.584 24.6273 107.04 24.6139 106.539 24.4353C106.039 24.2567 105.61 23.9222 105.314 23.4812C105.267 24.0581 105.341 24.6385 105.531 25.1852C105.721 25.7319 106.023 26.233 106.418 26.6567C105.504 26.4274 104.705 25.8715 104.173 25.0937C104.396 26.1233 104.607 27.1404 104.83 28.1576C101.109 28.2568 97.4619 24.6472 96.4199 21.4469C94.857 16.572 96.0602 11.66 98.7891 7.3309C100.123 5.1427 101.985 3.32464 104.204 2.04371C106.424 0.762774 108.929 0.0600241 111.491 0C116.602 0 120.881 2.48085 122.853 7.18205C126.178 4.83765 132.901 4.01897 136.597 5.70594C138.446 6.57024 140.043 7.89397 141.235 9.55083C142.427 11.2077 143.175 13.1424 143.407 15.1704C144.597 14.7536 145.876 14.6603 147.114 14.9C148.352 15.1397 149.504 15.7039 150.453 16.5348L150.924 16.9442C152.224 18.1841 153.189 19.733 153.729 21.4464C154.269 23.1599 154.367 24.9822 154.013 26.7435C153.74 28.17 153.244 29.6337 152.958 30.7749C152.102 34.2108 150.527 41.3557 150.527 41.3557Z" fill="#263238"/>
    <path d="M104.731 23.308C104.731 23.308 104.62 23.308 104.434 23.0724C104.164 22.8327 103.919 22.5668 103.702 22.2785C102.884 21.1948 102.378 19.9079 102.238 18.5572C102.115 17.5588 102.206 16.5455 102.505 15.585C102.805 14.6246 103.306 13.7391 103.975 12.9877C104.798 12.0656 105.834 11.3579 106.993 10.9256C108.151 10.4934 109.397 10.3497 110.623 10.5069C111.887 10.7007 113.091 11.1755 114.146 11.8962C115.142 12.5322 116.034 13.3188 116.788 14.2282C118.907 16.8312 120.009 20.115 119.889 23.4693C119.889 23.9407 119.889 24.3004 119.778 24.5485C119.769 24.6752 119.744 24.8002 119.703 24.9206C119.825 23.1227 119.653 21.3171 119.195 19.5744C118.668 17.699 117.755 15.9541 116.516 14.4514C115.054 12.5696 112.953 11.2896 110.611 10.8542C109.442 10.7108 108.255 10.8513 107.152 11.2637C106.049 11.6761 105.061 12.3483 104.273 13.2234C103.629 13.938 103.143 14.78 102.846 15.6946C102.549 16.6092 102.448 17.5761 102.548 18.5324C102.663 19.8375 103.117 21.0902 103.863 22.1669C104.384 22.9111 104.756 23.2832 104.731 23.308Z" fill="#455A64"/>
    <path d="M103.019 27.2018C102.916 27.0721 102.829 26.9305 102.759 26.78C102.598 26.4947 102.362 26.073 102.077 25.5396C101.244 23.9865 100.558 22.3585 100.03 20.6771C99.6811 19.5044 99.4893 18.2906 99.4594 17.0675C99.4141 15.6524 99.6721 14.244 100.216 12.9369C100.843 11.4832 101.882 10.2454 103.206 9.37688C104.62 8.45679 106.248 7.91836 107.932 7.81396C109.622 7.72324 111.313 7.9895 112.893 8.59542C114.345 9.15906 115.703 9.93673 116.925 10.9026C119.059 12.4802 120.609 14.7233 121.328 17.2784C121.783 19.0084 121.692 20.8366 121.068 22.513C120.899 22.9492 120.683 23.3652 120.423 23.7534C120.34 23.9007 120.235 24.0345 120.112 24.1503C120.439 23.6025 120.713 23.0252 120.931 22.4261C121.482 20.7737 121.529 18.995 121.068 17.3156C120.329 14.8268 118.795 12.6484 116.701 11.1135C114.253 9.12003 111.175 8.06452 108.018 8.13646C106.397 8.23562 104.829 8.75269 103.466 9.63738C102.205 10.4618 101.21 11.6336 100.601 13.0113C100.072 14.2752 99.8142 15.6358 99.844 17.0055C99.8561 18.2012 100.027 19.39 100.353 20.5407C100.848 22.2154 101.491 23.8427 102.275 25.4031L102.895 26.6436C102.959 26.8239 103.001 27.0113 103.019 27.2018Z" fill="#455A64"/>
    <path d="M147.451 35.7236C147.451 35.7236 148.258 35.0662 149.324 33.8134C150.699 32.1739 151.653 30.2238 152.103 28.1322C152.527 26.0354 152.424 23.8662 151.805 21.8185C151.334 20.2432 150.801 19.3376 150.863 19.3376C151.027 19.5151 151.165 19.7157 151.272 19.933C151.587 20.5133 151.853 21.1191 152.066 21.7441C152.781 23.827 152.922 26.0641 152.475 28.2204C152.027 30.3768 151.008 32.373 149.523 33.9994C149.078 34.4903 148.593 34.9426 148.072 35.3515C147.885 35.5064 147.676 35.6319 147.451 35.7236Z" fill="#455A64"/>
    <path d="M139.525 35.4769C139.525 35.4769 139.959 35.2784 140.654 34.807C141.615 34.1452 142.375 33.231 142.849 32.1649L143.209 31.3339L143.135 32.2394C143.023 33.4798 142.899 34.8815 142.762 36.4072L142.477 36.2335C143.723 35.3827 144.787 34.2935 145.609 33.0288C146.431 31.7641 146.994 30.349 147.265 28.8654C147.503 27.5113 147.503 26.1261 147.265 24.772C146.993 23.5289 146.576 22.3216 146.025 21.1748C146.025 21.1748 146.087 21.2368 146.186 21.3857C146.328 21.6007 146.456 21.8245 146.57 22.0555C147.004 22.8988 147.325 23.7955 147.526 24.7224C147.987 26.9505 147.773 29.2655 146.911 31.3713C146.049 33.4771 144.579 35.278 142.688 36.5436L142.365 36.7545V36.37C142.527 34.8443 142.676 33.4302 142.812 32.2146L143.097 32.289C142.576 33.3885 141.75 34.3144 140.716 34.9559C140.433 35.1212 140.138 35.2663 139.835 35.39C139.737 35.4368 139.633 35.4662 139.525 35.4769Z" fill="#455A64"/>
    <path d="M137.106 17.1425C136.604 16.1925 135.921 15.3498 135.096 14.6616C134.182 13.9337 133.105 13.436 131.958 13.2103C130.557 12.9438 129.11 13.0726 127.778 13.5825C126.435 14.085 125.231 14.9016 124.268 15.9641C123.479 16.8341 122.838 17.8271 122.37 18.9039C121.973 19.9148 121.657 20.956 121.427 22.0173C121.401 21.7223 121.422 21.425 121.489 21.1366C121.613 20.3343 121.825 19.548 122.122 18.7922C122.567 17.6681 123.2 16.6278 123.995 15.716C124.991 14.6049 126.242 13.7534 127.641 13.2351C129.042 12.704 130.564 12.5793 132.033 12.8754C133.227 13.1274 134.34 13.6731 135.27 14.4632C135.892 14.9952 136.41 15.6389 136.796 16.361C136.894 16.5585 136.981 16.7614 137.056 16.9688C137.106 17.0556 137.118 17.1301 137.106 17.1425Z" fill="#455A64"/>
    <path d="M135.072 10.5056C134.309 10.1118 133.506 9.79997 132.678 9.57528C130.648 9.14096 128.53 9.4398 126.699 10.4188C124.897 11.4516 123.429 12.9799 122.469 14.8223C121.712 16.2364 121.464 17.2163 121.402 17.1915C121.406 16.9547 121.447 16.7201 121.526 16.4968C121.704 15.8778 121.936 15.2759 122.221 14.6982C123.148 12.759 124.646 11.1491 126.513 10.0839C128.41 9.05727 130.624 8.7827 132.715 9.31479C133.34 9.47963 133.937 9.73452 134.489 10.0714C134.706 10.1832 134.903 10.3298 135.072 10.5056Z" fill="#455A64"/>
    <path d="M72.542 123.297C68.6471 134.672 69.0812 133.692 61.7876 167.679C60.4479 173.956 62.8171 183.805 68.4734 186.782C74.1298 189.759 84.1772 186.484 87.5387 181.026L92.947 129.735L72.542 123.297Z" fill="#FFBF9D"/>
    <path d="M166.566 184.933L166.405 157.905L166.516 155.25L193.942 148.85C193.942 148.85 188.559 131.112 183.622 112.046C180.769 101.031 171.279 95.499 168.985 94.3082L168.476 94.0725L142.08 82.9087C136.746 88.5898 128.981 93.1546 121.501 90.9714C117.242 89.5805 113.471 86.9976 110.635 83.5289L92.8599 89.6442C87.7219 91.4074 83.3666 94.9197 80.5549 99.5676C76.8337 106.204 64.938 136.408 64.6899 137.028L86.7198 139.001C86.7198 139.001 82.8125 210.474 84.239 223.238C84.239 223.238 89.5976 226.959 103.093 227.579C130.482 228.82 171.23 226.922 171.23 226.922C170.585 222.804 169.915 215.919 169.543 212.434L166.566 184.933Z" fill="#B10000"/>
    <path d="M87.5136 112.444C87.6252 112.444 87.0422 129.487 86.2111 150.5C85.3801 171.513 84.611 188.556 84.5366 188.556C84.4621 188.556 85.0079 171.513 85.777 150.488C86.5461 129.462 87.4019 112.431 87.5136 112.444Z" fill="#263238"/>
    <path d="M163.552 117.181C163.366 117.181 163.912 132.314 164.793 150.958C165.673 169.601 166.542 184.71 166.74 184.697C166.939 184.685 166.38 169.577 165.5 150.921C164.619 132.265 163.751 117.181 163.552 117.181Z" fill="#263238"/>
    <path d="M194.078 161.712C193.185 155.002 192.441 149.072 192.441 149.072L170.51 154.171L171.453 157.706L154.497 140.476L151.805 140.712L143.271 149.581C143.271 149.581 150.713 165.297 155.042 171.412C160.674 179.376 169.518 191.507 181.637 190.49C192.838 189.547 195.679 173.744 194.078 161.712Z" fill="#FFBF9D"/>
    <path d="M182.195 165.731C180.865 163.982 179.235 162.483 177.382 161.302C175.665 159.928 173.727 158.854 171.651 158.127C171.552 158.313 174.132 159.777 176.96 161.848C179.788 163.92 182.058 165.88 182.195 165.731Z" fill="#FF9A6C"/>
    <path d="M124.888 118L132.429 114.155L142.204 117.256L147.042 121.721L154.484 140.476L160.451 148.03L149.919 161.675L143.258 149.519C143.258 149.519 137.614 147.038 135.344 143.491C133.074 139.943 132.07 137.983 132.07 137.983C132.07 137.983 128.807 136.42 128.2 134.907C127.842 134.062 127.648 133.157 127.629 132.24L129.279 129.821C129.174 128.77 129.345 127.71 129.775 126.745C130.087 126.295 130.516 125.939 131.015 125.715C131.015 125.715 130.532 123.681 131.288 122.949C132.718 122.108 134.231 121.418 135.803 120.89L132.516 119.017C132.516 119.017 125.297 121.337 124.888 118Z" fill="#FFBF9D"/>
    <path d="M136.077 124.81C136.077 124.909 134.923 124.934 133.596 125.231C132.269 125.529 131.115 125.951 131.115 125.864C131.86 125.366 132.708 125.044 133.596 124.921C134.404 124.699 135.252 124.661 136.077 124.81Z" fill="#FF9A6C"/>
    <path d="M133.819 129.014C133.097 129.15 132.369 129.245 131.636 129.3C130.925 129.467 130.204 129.591 129.478 129.672C130.116 129.277 130.839 129.039 131.586 128.977C132.324 128.82 133.088 128.833 133.819 129.014Z" fill="#FF9A6C"/>
    <path d="M130.631 135.615C130.544 135.615 130.482 135.181 130.495 134.647C130.507 134.114 130.582 133.692 130.668 133.692C130.755 133.692 130.817 134.126 130.817 134.66C130.817 135.193 130.718 135.615 130.631 135.615Z" fill="#FF9A6C"/>
    <path d="M132.07 137.647C131.971 137.023 131.733 136.43 131.375 135.91C130.95 135.445 130.435 135.069 129.862 134.806C129.862 134.806 130.097 134.744 130.457 134.806C130.948 134.953 131.381 135.247 131.697 135.65C131.999 136.037 132.184 136.501 132.231 136.99C132.194 137.424 132.107 137.647 132.07 137.647Z" fill="#FF9A6C"/>
    <path d="M137.962 131.633C137.61 131.136 137.163 130.715 136.647 130.392C136.085 130.133 135.479 129.982 134.861 129.946C134.861 129.946 135.059 129.809 135.431 129.784C135.913 129.761 136.391 129.873 136.812 130.108C137.233 130.342 137.58 130.69 137.813 131.112C137.987 131.397 137.999 131.62 137.962 131.633Z" fill="#FF9A6C"/>
    <path d="M141.398 127.464C141.311 127.464 141.014 126.72 140.158 126.224C139.64 125.951 139.084 125.759 138.508 125.653C138.508 125.653 138.707 125.542 139.054 125.542C139.495 125.571 139.922 125.712 140.294 125.951C140.68 126.189 140.993 126.528 141.2 126.931C141.423 127.241 141.435 127.452 141.398 127.464Z" fill="#FF9A6C"/>
    <path d="M143.705 125.417C143.705 125.417 143.705 125.156 143.618 124.772C143.556 124.274 143.368 123.8 143.072 123.395C142.768 122.991 142.367 122.671 141.906 122.464C141.546 122.303 141.298 122.254 141.311 122.204C141.323 122.154 141.584 122.13 141.981 122.204C142.521 122.364 142.996 122.694 143.333 123.147C143.662 123.601 143.84 124.148 143.841 124.71C143.841 125.181 143.742 125.429 143.705 125.417Z" fill="#FF9A6C"/>
    <path d="M140.504 120.517C140.504 120.629 138.929 120.654 137.031 120.939C135.133 121.225 133.694 121.907 133.645 121.82C134.647 121.156 135.789 120.731 136.982 120.58C137.802 120.449 138.632 120.387 139.462 120.393C139.814 120.373 140.167 120.415 140.504 120.517Z" fill="#FF9A6C"/>
    <g opacity="0.3">
        <path d="M119.045 162.867C118.942 160.678 118.303 158.548 117.184 156.664C114.976 153.551 110.647 152.943 106.852 153.08C103.056 153.216 99.0866 154.01 95.5142 152.708L84.8218 184.438C88.8314 183.43 92.2895 180.898 94.4599 177.38C95.5514 175.606 96.3453 173.547 97.9951 172.281C100.277 170.532 103.428 170.78 106.306 170.756C109.307 170.721 112.29 170.283 115.175 169.453C116.436 169.204 117.581 168.551 118.437 167.593C119.417 166.278 119.268 164.492 119.045 162.867Z" fill="black"/>
    </g>
    <path d="M91.5196 125.728L94.844 161.043C94.8528 161.845 95.0561 162.633 95.4363 163.34C95.8166 164.046 96.3624 164.65 97.0271 165.099L118.449 164.652C119.732 162.929 120.317 160.785 120.087 158.649L117.705 124.847C117.569 122.813 116.812 121.349 115.894 121.324L93.3307 120.803C92.1771 120.779 91.284 123.21 91.5196 125.728Z" fill="#263238"/>
    <path d="M88.4073 132.823C87.9893 132.27 87.7693 131.593 87.7828 130.9C87.7963 130.207 88.0425 129.539 88.4818 129.003C88.9417 128.471 89.5142 128.048 90.1579 127.765C90.8015 127.481 91.5001 127.345 92.203 127.365C93.5914 127.404 94.9579 127.72 96.222 128.296C97.7757 128.949 99.2629 129.751 100.663 130.69C101.202 130.962 101.678 131.345 102.06 131.813C102.443 132.281 102.723 132.823 102.883 133.406C103.057 134.647 101.729 135.887 100.7 135.304C101.429 135.634 102.07 136.132 102.571 136.757C103.071 137.382 103.416 138.117 103.578 138.901C103.764 140.402 102.933 141.196 101.469 141.593C102.019 141.824 102.456 142.261 102.688 142.81C102.92 143.359 102.928 143.978 102.709 144.533C102.364 145.056 101.841 145.436 101.237 145.605C100.633 145.774 99.9889 145.719 99.4223 145.451C98.299 144.87 97.3394 144.017 96.6313 142.97C97.3359 144.676 97.4707 146.564 97.0159 148.353C93.8156 147.113 90.6649 143.627 91.62 140.253C90.8358 139.608 90.2883 138.721 90.0637 137.73C89.8391 136.74 89.9503 135.703 90.3796 134.783C89.6453 134.441 89.0176 133.906 88.5632 133.236C88.1089 132.565 87.8449 131.784 87.7995 130.975" fill="#FFBF9D"/>
    <path d="M88.0598 129.747L87.7993 144.843L83.8796 150.735L65.9307 166.798C65.9307 166.798 68.5852 188.617 76.6975 186.236C84.8099 183.854 86.7574 182.304 91.5826 173.509C94.1379 168.783 95.7256 161.105 97.2017 156.726C98.07 154.146 97.3134 145.835 97.3134 145.835L88.0598 129.747Z" fill="#FFBF9D"/>
    <path d="M101.469 141.617C100.982 141.285 100.522 140.916 100.092 140.513C99.045 139.6 97.8078 138.93 96.4702 138.554C95.7352 138.387 94.9724 138.387 94.2374 138.554C93.6357 138.687 93.0717 138.954 92.5877 139.335C92.1571 139.709 91.7887 140.148 91.4961 140.637C91.4961 140.637 91.4961 140.464 91.6325 140.179C91.8225 139.78 92.0928 139.425 92.4264 139.137C92.9254 138.701 93.5206 138.391 94.163 138.231C94.946 138.045 95.7616 138.045 96.5446 138.231C97.9427 138.616 99.222 139.345 100.266 140.352C100.719 140.721 101.123 141.147 101.469 141.617Z" fill="#FF9A6C"/>
    <path d="M101.246 135.466C100.659 135.288 100.096 135.038 99.571 134.722C99.0748 134.474 98.4794 134.164 97.7972 133.891C97.046 133.617 96.2746 133.401 95.49 133.246C94.7151 133.083 93.918 133.053 93.1332 133.159C92.5046 133.268 91.9075 133.513 91.3842 133.878C90.8849 134.232 90.4628 134.684 90.1438 135.206C90.1613 135.04 90.2119 134.88 90.2927 134.734C90.5032 134.325 90.7993 133.965 91.1609 133.68C91.7042 133.255 92.3429 132.97 93.0216 132.849C93.8406 132.687 94.6834 132.687 95.5024 132.849C96.3079 133.007 97.097 133.239 97.8592 133.544C98.4732 133.807 99.0698 134.11 99.6454 134.449C100.201 134.752 100.736 135.091 101.246 135.466Z" fill="#FF9A6C"/>
    <path d="M67.8658 175.482C67.4235 173.641 67.3476 171.732 67.6425 169.862C67.9995 167.844 68.7181 165.907 69.7637 164.144C71.0744 162.004 72.6683 160.052 74.5021 158.339C76.4371 156.466 78.4218 154.841 80.1956 153.377C81.7808 152.029 83.2961 150.601 84.7356 149.098C85.696 148.04 86.5711 146.908 87.3529 145.711C87.6507 145.29 87.9003 144.836 88.0971 144.359C87.7574 144.75 87.4465 145.164 87.1668 145.6C86.3215 146.704 85.4058 147.752 84.4255 148.738C83.185 149.978 81.6345 151.393 79.8359 152.893C78.0373 154.394 76.1146 156.019 74.0927 157.855C72.2178 159.606 70.6015 161.615 69.2923 163.822C68.2156 165.655 67.4959 167.675 67.1712 169.776C66.9658 171.179 67.0162 172.608 67.32 173.993C67.4008 174.368 67.5086 174.737 67.6425 175.097C67.7914 175.345 67.841 175.482 67.8658 175.482Z" fill="#FF9A6C"/>
    <path d="M58.0207 190.293H66.1489C66.8663 190.293 67.5544 190.578 68.0616 191.085C68.5689 191.592 68.8539 192.28 68.8539 192.998V218.513H55.3157V192.998C55.3157 192.28 55.6007 191.592 56.108 191.085C56.6152 190.578 57.3033 190.293 58.0207 190.293Z" fill="white" stroke="#263238" stroke-linecap="round" stroke-linejoin="round"/>
    <path d="M58.0207 190.293H66.1489C66.8663 190.293 67.5544 190.578 68.0616 191.085C68.5689 191.592 68.8539 192.28 68.8539 192.998V197.667H55.3157V192.998C55.3157 192.28 55.6007 191.592 56.108 191.085C56.6152 190.578 57.3033 190.293 58.0207 190.293Z" fill="white" stroke="#263238" stroke-linecap="round" stroke-linejoin="round"/>
    <path d="M58.1594 198.725V215.755" stroke="#263238" stroke-linecap="round" stroke-linejoin="round"/>
    <path d="M62.4517 198.725V215.755" stroke="#263238" stroke-linecap="round" stroke-linejoin="round"/>
    <path d="M37.8096 185.814H21.9565V190.768H37.8096V185.814Z" fill="#263238" stroke="#263238" stroke-linecap="round" stroke-linejoin="round"/>
    <path d="M16.2883 189.445H43.8013L49.6941 212.05H10.3955L16.2883 189.445Z" fill="white" stroke="#263238" stroke-linecap="round" stroke-linejoin="round"/>
    <path d="M49.6941 211.878H10.3955V218.836H49.6941V211.878Z" fill="#263238" stroke="#263238" stroke-linecap="round" stroke-linejoin="round"/>
    <path d="M43.9333 189.941L43.801 189.425H16.288L16.1558 189.941C18.1399 198.87 23.6094 205.278 30.0445 205.278C36.4797 205.278 41.9426 198.889 43.9333 189.941Z" fill="#696969" stroke="#263238" stroke-linecap="round" stroke-linejoin="round"/>
    <path d="M23.2789 205.959H20.9641V210.252H23.2789V205.959Z" fill="white" stroke="#263238" stroke-linecap="round" stroke-linejoin="round"/>
    <path d="M28.5631 205.959H26.2483V210.252H28.5631V205.959Z" fill="white" stroke="#263238" stroke-linecap="round" stroke-linejoin="round"/>
    <path d="M33.8473 205.959H31.5325V210.252H33.8473V205.959Z" fill="white" stroke="#263238" stroke-linecap="round" stroke-linejoin="round"/>
    <path d="M39.1322 205.959H36.8174V210.252H39.1322V205.959Z" fill="white" stroke="#263238" stroke-linecap="round" stroke-linejoin="round"/>
    <path d="M245.6 183.727H190.665C189.692 183.727 188.903 184.545 188.903 185.554V214.261C188.903 215.27 189.692 216.088 190.665 216.088H245.6C246.573 216.088 247.362 215.27 247.362 214.261V185.554C247.362 184.545 246.573 183.727 245.6 183.727Z" fill="white" stroke="#263238" stroke-linecap="round" stroke-linejoin="round"/>
    <path d="M245.11 185.765H233.027V192.473H245.11V185.765Z" fill="#696969" stroke="#263238" stroke-linecap="round" stroke-linejoin="round"/>
    <path d="M235.785 198.748C235.785 199.066 235.694 199.376 235.524 199.64C235.354 199.904 235.112 200.11 234.829 200.232C234.547 200.353 234.235 200.385 233.935 200.323C233.635 200.261 233.359 200.108 233.143 199.884C232.926 199.659 232.779 199.373 232.719 199.062C232.659 198.75 232.69 198.427 232.807 198.134C232.924 197.841 233.123 197.59 233.377 197.413C233.632 197.237 233.931 197.143 234.237 197.143C234.648 197.143 235.041 197.312 235.332 197.613C235.622 197.914 235.785 198.323 235.785 198.748Z" fill="white" stroke="#263238" stroke-linecap="round" stroke-linejoin="round"/>
    <path d="M239.156 200.348C240.011 200.348 240.704 199.629 240.704 198.742C240.704 197.856 240.011 197.137 239.156 197.137C238.301 197.137 237.608 197.856 237.608 198.742C237.608 199.629 238.301 200.348 239.156 200.348Z" fill="white" stroke="#263238" stroke-linecap="round" stroke-linejoin="round"/>
    <path d="M244.075 200.348C244.93 200.348 245.623 199.629 245.623 198.742C245.623 197.856 244.93 197.137 244.075 197.137C243.22 197.137 242.527 197.856 242.527 198.742C242.527 199.629 243.22 200.348 244.075 200.348Z" fill="white" stroke="#263238" stroke-linecap="round" stroke-linejoin="round"/>
    <path d="M235.785 204.861C235.786 205.179 235.696 205.49 235.527 205.755C235.357 206.019 235.116 206.226 234.833 206.349C234.551 206.471 234.239 206.504 233.939 206.442C233.638 206.381 233.362 206.229 233.145 206.004C232.928 205.78 232.78 205.494 232.72 205.182C232.659 204.871 232.69 204.548 232.807 204.254C232.924 203.96 233.122 203.709 233.377 203.532C233.631 203.356 233.931 203.261 234.237 203.261C234.647 203.261 235.039 203.43 235.33 203.73C235.62 204.029 235.783 204.436 235.785 204.861Z" fill="white" stroke="#263238" stroke-linecap="round" stroke-linejoin="round"/>
    <path d="M240.698 204.861C240.699 205.179 240.609 205.49 240.44 205.755C240.27 206.02 240.028 206.227 239.745 206.349C239.462 206.471 239.151 206.504 238.85 206.442C238.549 206.38 238.273 206.227 238.056 206.002C237.839 205.777 237.692 205.491 237.632 205.179C237.573 204.867 237.604 204.543 237.722 204.25C237.84 203.956 238.039 203.706 238.294 203.53C238.55 203.354 238.85 203.26 239.156 203.261C239.565 203.263 239.956 203.432 240.245 203.732C240.534 204.031 240.697 204.437 240.698 204.861Z" fill="white" stroke="#263238" stroke-linecap="round" stroke-linejoin="round"/>
    <path d="M245.617 204.861C245.618 205.179 245.528 205.49 245.358 205.755C245.189 206.02 244.947 206.227 244.664 206.349C244.381 206.471 244.069 206.504 243.769 206.442C243.468 206.38 243.192 206.227 242.975 206.002C242.758 205.777 242.61 205.491 242.551 205.179C242.491 204.867 242.523 204.543 242.64 204.25C242.758 203.956 242.957 203.706 243.213 203.53C243.468 203.354 243.768 203.26 244.075 203.261C244.483 203.263 244.875 203.432 245.164 203.732C245.452 204.031 245.615 204.437 245.617 204.861Z" fill="white" stroke="#263238" stroke-linecap="round" stroke-linejoin="round"/>
    <path d="M235.785 211.009C235.785 211.327 235.694 211.637 235.524 211.901C235.354 212.165 235.112 212.371 234.829 212.492C234.547 212.614 234.235 212.646 233.935 212.584C233.635 212.522 233.359 212.369 233.143 212.144C232.926 211.92 232.779 211.634 232.719 211.322C232.659 211.011 232.69 210.688 232.807 210.395C232.924 210.101 233.123 209.851 233.377 209.674C233.632 209.498 233.931 209.404 234.237 209.404C234.648 209.404 235.041 209.573 235.332 209.874C235.622 210.175 235.785 210.583 235.785 211.009Z" fill="white" stroke="#263238" stroke-linecap="round" stroke-linejoin="round"/>
    <path d="M240.698 211.009C240.698 211.327 240.607 211.637 240.437 211.902C240.267 212.166 240.025 212.372 239.741 212.493C239.458 212.614 239.147 212.646 238.846 212.583C238.546 212.521 238.27 212.367 238.054 212.142C237.838 211.917 237.691 211.631 237.632 211.319C237.573 211.007 237.604 210.684 237.722 210.391C237.84 210.097 238.039 209.847 238.295 209.671C238.55 209.496 238.85 209.402 239.156 209.404C239.566 209.405 239.958 209.575 240.247 209.876C240.536 210.177 240.698 210.584 240.698 211.009Z" fill="white" stroke="#263238" stroke-linecap="round" stroke-linejoin="round"/>
    <path d="M245.617 211.009C245.617 211.327 245.526 211.637 245.356 211.902C245.185 212.166 244.943 212.372 244.66 212.493C244.377 212.614 244.066 212.646 243.765 212.583C243.465 212.521 243.189 212.367 242.973 212.142C242.757 211.917 242.61 211.631 242.551 211.319C242.491 211.007 242.523 210.684 242.641 210.391C242.759 210.097 242.958 209.847 243.213 209.671C243.469 209.496 243.768 209.402 244.075 209.404C244.484 209.405 244.877 209.575 245.166 209.876C245.455 210.177 245.617 210.584 245.617 211.009Z" fill="white" stroke="#263238" stroke-linecap="round" stroke-linejoin="round"/>
    <path d="M228.266 199.612C228.266 207.424 227.703 213.753 227 213.753C226.296 213.753 225.739 207.424 225.739 199.612C225.739 191.801 226.302 185.472 227 185.472C227.698 185.472 228.266 191.807 228.266 199.612Z" fill="#696969" stroke="#263238" stroke-linecap="round" stroke-linejoin="round"/>
    <path d="M220.764 186.705C219.948 186.664 219.12 186.641 218.287 186.641C203.767 186.641 191.999 192.648 191.999 200.068C191.999 207.489 203.767 213.496 218.287 213.496C219.12 213.496 219.976 213.496 220.764 213.438V186.705Z" fill="#696969" stroke="#263238" stroke-linecap="round" stroke-linejoin="round"/>
</svg>
