<svg width="202" height="202" viewBox="0 0 202 202" fill="none" xmlns="http://www.w3.org/2000/svg">
<path d="M63.125 64.5518V56.3876C63.125 37.4502 78.3592 18.8493 97.2967 17.0818C119.853 14.8935 138.875 32.6526 138.875 54.7885V66.4035" stroke="#061023" stroke-miterlimit="10" stroke-linecap="round" stroke-linejoin="round"/>
<path d="M32.0743 139.38L34.0102 155.119C35.8618 171.616 41.9218 185.167 75.7568 185.167H126.257C160.092 185.167 166.152 171.616 167.919 155.119L174.232 104.619C176.504 84.0825 170.613 67.3333 134.673 67.3333H67.3402C31.401 67.3333 25.5093 84.0825 27.7818 104.619" fill="#F1F5F9"/>
<path d="M32.0743 139.38L34.0102 155.119C35.8618 171.616 41.9218 185.167 75.7568 185.167H126.257C160.092 185.167 166.152 171.616 167.919 155.119L174.232 104.619C176.504 84.0825 170.613 67.3333 134.673 67.3333H67.3402C31.401 67.3333 25.5093 84.0825 27.7818 104.619" stroke="#061023" stroke-miterlimit="10" stroke-linecap="round" stroke-linejoin="round"/>
<path d="M130.409 101H130.485" stroke="#061023" stroke-linecap="round" stroke-linejoin="round"/>
<path d="M71.4924 101H71.568" stroke="#061023" stroke-linecap="round" stroke-linejoin="round"/>
<path d="M40.5 122C40.5 128.416 35.9622 133.5 30.5 133.5C25.0378 133.5 20.5 128.416 20.5 122C20.5 115.584 25.0378 110.5 30.5 110.5C35.9622 110.5 40.5 115.584 40.5 122Z" fill="#F1F5F9" stroke="black"/>
</svg>
