<svg width="41" height="36" viewBox="0 0 41 36" fill="none" xmlns="http://www.w3.org/2000/svg">
<path fill-rule="evenodd" clip-rule="evenodd" d="M19.8327 0.5C13.5848 0.5 8.51992 5.5649 8.51992 11.8128C8.51992 11.9759 8.52337 12.1382 8.53021 12.2996C5.38516 13.2898 2.81422 15.7248 1.71287 18.9634L0.79829 21.6528C-1.52755 28.4922 3.55722 35.5921 10.7812 35.5921H29.8519C37.0759 35.5921 42.1607 28.4922 39.8348 21.6528L38.9203 18.9634C37.8189 15.7248 35.2479 13.2897 32.1028 12.2996C32.1096 12.1382 32.1131 11.9759 32.1131 11.8128C32.1131 5.5649 27.0482 0.5 20.8003 0.5H19.8327ZM23.0751 11.8139C23.0751 11.8136 23.0751 11.8132 23.0751 11.8128C23.0751 10.5565 22.0566 9.53804 20.8003 9.53804H19.8327C18.5764 9.53804 17.558 10.5565 17.558 11.8128C17.558 11.8132 17.558 11.8136 17.558 11.8139H23.0751Z" fill="#0230B1"/>
</svg>