<svg width="182" height="169" viewBox="0 0 182 169" fill="none" xmlns="http://www.w3.org/2000/svg">
    <path fill-rule="evenodd" clip-rule="evenodd" d="M148.738 38.1916C164.801 60.9542 161.281 94.8902 136.539 118.855C112.301 142.33 75.5972 146.132 47.825 135.932C23.5802 127.028 14.7603 102.153 21.7852 76.7113C27.8363 54.7962 51.8302 40.6815 76.1639 33.2983C103.641 24.9613 135.377 19.2579 148.738 38.1916Z" fill="#404040" fill-opacity="0.05"/>
    <path d="M76.3875 28H54V61.2625L36.0375 47.9688C36.3375 44.575 38.0812 41.425 40.8562 39.3812L45 36.3063V28C45 23.0312 49.0312 19 54 19H68.3625L77.7188 12.0813C79.5375 10.7313 81.7313 10 84 10C86.2687 10 88.4625 10.7313 90.2812 12.0625L99.6375 19H114C118.969 19 123 23.0312 123 28V36.3063L127.144 39.3812C129.919 41.425 131.662 44.575 131.962 47.9688L114 61.2625V28H76.3875ZM36 94V55.3938L76.8 85.6187C78.8813 87.1562 81.4125 88 84 88C86.5875 88 89.1187 87.175 91.2 85.6187L132 55.3938V94C132 100.619 126.619 106 120 106H48C41.3813 106 36 100.619 36 94ZM69 40H99C100.65 40 102 41.35 102 43C102 44.65 100.65 46 99 46H69C67.35 46 66 44.65 66 43C66 41.35 67.35 40 69 40ZM69 52H99C100.65 52 102 53.35 102 55C102 56.65 100.65 58 99 58H69C67.35 58 66 56.65 66 55C66 53.35 67.35 52 69 52Z" fill="#757575"/>
    <path d="M83.486 115.6L83 114L82.514 115.6H81L82.236 116.482L81.766 118L83 117.062L84.236 118L83.766 116.482L85 115.6H83.486Z" fill="#B10000" fill-opacity="0.4"/>
    <path d="M126.486 67.6L126 66L125.514 67.6H124L125.236 68.482L124.766 70L126 69.062L127.236 70L126.766 68.482L128 67.6H126.486Z" fill="#B10000" fill-opacity="0.4"/>
    <path d="M127.865 100.2L127.5 99L127.135 100.2H126L126.927 100.862L126.575 102L127.5 101.296L128.427 102L128.075 100.862L129 100.2H127.865Z" fill="#B10000" fill-opacity="0.4"/>
    <path d="M106.865 11.2L106.5 10L106.135 11.2H105L105.927 11.8615L105.575 13L106.5 12.2965L107.427 13L107.075 11.8615L108 11.2H106.865Z" fill="#B10000" fill-opacity="0.4"/>
    <path d="M74.8645 31.2L74.5 30L74.1355 31.2H73L73.927 31.8615L73.5745 33L74.5 32.2965L75.427 33L75.0745 31.8615L76 31.2H74.8645Z" fill="#B10000" fill-opacity="0.4"/>
    <path d="M109.865 108.2L109.5 107L109.135 108.2H108L108.927 108.862L108.575 110L109.5 109.296L110.427 110L110.075 108.862L111 108.2H109.865Z" fill="#B10000" fill-opacity="0.4"/>
    <path d="M40.729 78.4L40 76L39.271 78.4H37L38.854 79.723L38.149 82L40 80.593L41.854 82L41.149 79.723L43 78.4H40.729Z" fill="#B10000" fill-opacity="0.4"/>
    <path d="M46.486 104.6L46 103L45.514 104.6H44L45.236 105.482L44.766 107L46 106.062L47.236 107L46.766 105.482L48 104.6H46.486Z" fill="#B10000" fill-opacity="0.4"/>
    <path d="M32.486 83.6L32 82L31.514 83.6H30L31.236 84.482L30.766 86L32 85.062L33.236 86L32.766 84.482L34 83.6H32.486Z" fill="#B10000" fill-opacity="0.4"/>
</svg>
