<svg width="20" height="16" viewBox="0 0 20 16" fill="none" xmlns="http://www.w3.org/2000/svg">
    <path d="M4.27854 14.364C3.52031 13.5283 2.91886 12.5361 2.50851 11.4442C2.09817 10.3522 1.88696 9.18189 1.88696 7.99999C1.88696 6.81808 2.09817 5.64775 2.50851 4.55581C2.91886 3.46387 3.52031 2.47172 4.27854 1.63599M15.826 1.63599C16.5842 2.47172 17.1856 3.46387 17.596 4.55581C18.0063 5.64775 18.2175 6.81808 18.2175 7.99999C18.2175 9.18189 18.0063 10.3522 17.596 11.4442C17.1856 12.5361 16.5842 13.5283 15.826 14.364M6.84423 11.535C5.99382 10.5973 5.51608 9.32581 5.51608 7.99999C5.51608 6.67417 5.99382 5.40262 6.84423 4.46499M13.2603 4.46499C14.1107 5.40262 14.5884 6.67417 14.5884 7.99999C14.5884 9.32581 14.1107 10.5973 13.2603 11.535M10.9595 7.99999C10.9595 8.2652 10.8639 8.51956 10.6938 8.70709C10.5236 8.89463 10.2929 8.99999 10.0523 8.99999C9.81163 8.99999 9.58087 8.89463 9.41073 8.70709C9.24059 8.51956 9.145 8.2652 9.145 7.99999C9.145 7.73477 9.24059 7.48042 9.41073 7.29288C9.58087 7.10534 9.81163 6.99999 10.0523 6.99999C10.2929 6.99999 10.5236 7.10534 10.6938 7.29288C10.8639 7.48042 10.9595 7.73477 10.9595 7.99999Z" stroke="#616161" stroke-width="2" stroke-linecap="round" stroke-linejoin="round"/>
</svg>
