<svg width="40" height="43" viewBox="0 0 40 43" fill="none" xmlns="http://www.w3.org/2000/svg">
<path d="M27.0432 32.7819C20.6291 26.2472 19.9287 20.9012 19.9287 14.9884C19.9287 10.3299 17.2667 7.02379 14.4524 6.45488C14.2282 6.40971 13.9267 6.36665 13.5864 6.33136C10.8216 4.64864 5.42644 6.12243 5.42644 6.12243C3.69116 3.09651 5.38752 1.40179 5.38752 1.40179C5.67113 0.603493 3.97806 -0.154575 3.10482 0.70584C0.773962 2.99699 2.624 8.30982 2.624 8.30982C0.52597 10.8607 0.560927 14.8797 0.680965 16.5547C-0.927681 21.7977 1.00085 25.4744 3.87253 28.8412C8.35221 34.094 17.5457 42.6749 27.9943 42.6749C31.0302 42.6749 34.1697 41.9514 37.3322 40.2115C44.5682 36.2334 33.2661 39.121 27.0432 32.7819ZM27.9943 40.9103C17.5279 40.9103 8.49071 31.6384 5.09073 27.6519C2.26851 24.3429 0.743622 21.1652 2.47429 16.4093C3.37193 13.9431 4.00576 13.7194 4.42458 13.5711C4.98388 13.3735 6.28847 12.9126 6.31485 10.7965C6.6875 10.4372 8.22557 10.1895 8.81653 10.0935C10.1561 9.87748 11.4218 9.6735 11.805 8.32464C11.828 8.24559 11.8524 8.1383 11.8676 8.01125L11.9863 8.01054C12.8253 8.01054 13.7084 8.10019 14.147 8.18912C16.1507 8.59357 18.2798 11.1148 18.2798 14.9884C18.2798 20.9443 18.8628 26.8846 25.9062 34.0602C29.0272 37.24 33.2219 38.3206 36.0389 38.9276C33.464 40.244 30.7611 40.9103 27.9943 40.9103Z" fill="#101010"/>
</svg>
